<?xml version="1.0" encoding="utf-8"?>
<!-- Generator: Adobe Illustrator 18.1.1, SVG Export Plug-In . SVG Version: 6.00 Build 0)  -->
<svg version="1.1" id="Layer_1" xmlns="http://www.w3.org/2000/svg" xmlns:xlink="http://www.w3.org/1999/xlink" x="0px" y="0px"
	 viewBox="0 0 640 662.1" enable-background="new 0 0 640 662.1" xml:space="preserve">
<g>
	<defs>
		<rect id="SVGID_3_" x="0" width="640" height="662.1"/>
	</defs>
	<clipPath id="SVGID_1_">
		<use xlink:href="#SVGID_3_"  overflow="visible"/>
	</clipPath>
	<g clip-path="url(#SVGID_1_)">
		<polygon fill="#C02026" points="215.6,442.6 215.1,442.3 207.9,445.2 206.3,446.5 202.9,448.3 214.8,443.1 		"/>
		<g>
			<path fill="#C02026" d="M572,485.9c-91.7,5.9-124.1,69.6-124.1,69.6c-16.4,10.7-35.2,18.4-54.4,24l0,0.1l-5.1,12.9L382,608
				l-1.2,2.1l-9.3,6.3l-7,3.8l-3.8,3.7l-0.3,15.9l-0.7,3.4c50.2-10.1,109.2-23.6,129-35.2c36.8-21.5,32.6-28.2,57.1-66.2
				c24.5-38,192.7-58.9,192.7-58.9S663.6,480,572,485.9z"/>
			<path fill="#C02026" d="M287.6,496.4l2.1,11.2l4.7,12.6l15,20.3l8.5,8.6c0.8-0.2,1.5-0.4,2.3-0.7l7.3-9.7l8.9-12.6l4.5-7.2l6.3-3
				l2.1-2.8v-2.6l2.6-1.6l23.8-3.8l23.1-3.3l2.6-0.9l7.5,0.4l1.2,2.1l1,0.8c12.8-11,23.8-24.2,37.9-43.5
				c26.7-36.5,195.8-47.5,195.8-47.5s-74.5-7.3-166.4-6.8c-91.8,0.5-128,62.2-128,62.2c-19.6,11.2-42.1,18.3-64.7,22.6l0.7,1.8
				L287.6,496.4z"/>
			<path fill="#C02026" d="M237.8,409l-2.6,2.1l3.8,12.6l2.1,6.3l1.7,7.2l7,6.8l9.8,5.8l6.4,6c12.6-2.5,22.8-5.3,29.3-8.2
				c38.8-17.7,35.3-24.7,63.5-60c28.2-35.3,197.7-38.8,197.7-38.8s-74.1-10.6-165.9-14.1C298.9,331,260,391,260,391
				c-7.1,3.6-14.4,6.7-22,9.4l1.1,5.3L237.8,409z"/>
		</g>
		<g>
			<g>
				<polygon fill="#F0AD1D" points="51.1,83.9 59,83.2 61.1,80.6 64.1,80.6 65.3,81.4 66.2,82.7 68.2,81.1 70.9,76.9 72.1,76.9 
					72.4,77.2 73.7,80.6 74.5,79.7 76.6,77.2 78.4,69.7 77.2,67.6 77.2,64.7 73.7,62.6 71.2,58 70.3,53.3 63.7,61.7 53.6,69.2 
					48.5,75.2 47.3,79 48.5,81.8 				"/>
				<polygon fill="#F0AD1D" points="188.3,302.1 186.6,298.4 184.8,297.9 182.7,300.5 182.7,308 188.3,308 				"/>
				<polygon fill="#F0AD1D" points="198.3,303.5 197.1,299.3 195.9,299.3 195.3,298.7 193.8,299.3 192.5,301.7 192.5,308.4 
					197.4,309.2 				"/>
				<polygon fill="#F0AD1D" points="174,310.1 176.1,309.2 177,310.1 178.2,309.2 178.2,301.4 177,299.6 174.4,299.3 173.1,300.5 
					172.3,304.7 173.1,310.1 				"/>
				<polygon fill="#F0AD1D" points="207.2,311.8 207.2,303.5 203.4,303.5 201.6,305.9 201.6,310.1 202.2,310.1 				"/>
				<polygon fill="#F0AD1D" points="168.9,311.3 167.4,305.9 166,303.8 164.7,303.8 163.2,308 164.7,313.4 				"/>
				<polygon fill="#F0AD1D" points="216.3,311.3 215.1,308.4 213.9,308.4 210.5,310.4 210,313.1 215.1,316 				"/>
				<polygon fill="#F0AD1D" points="161.4,314.6 161.4,313.4 159,310.1 156,308.9 155.5,313.4 158.5,317.3 				"/>
				<polygon fill="#F0AD1D" points="221.4,320.6 224,316.4 222.6,315.2 221.9,314.6 217.2,318.5 220.2,321.8 				"/>
				<polygon fill="#F0AD1D" points="155.1,320.6 155.1,318.1 151.3,316 150.1,316.4 149.7,319.7 152.2,323 				"/>
				<polygon fill="#F0AD1D" points="224,328.1 225.2,327.8 227.3,323 226.5,322.3 221.9,324.8 				"/>
				<polygon fill="#F0AD1D" points="149.2,325.1 146.7,323 145,323 144.6,325.1 148.5,330.2 				"/>
				<polygon fill="#F0AD1D" points="225.6,332 227.3,333.5 228.9,331.4 228.9,329.9 227.7,329.9 225.6,331.1 				"/>
				<polygon fill="#F0AD1D" points="145.9,335.6 145.9,332.3 142.5,330.7 142.5,334.4 144.6,337 				"/>
				<polygon fill="#F0AD1D" points="229.8,339.5 230.6,337.4 229.8,337.4 228.9,338.6 				"/>
				<polygon fill="#F0AD1D" points="144.3,339.8 141.7,339.8 140.8,340.7 143.8,344 				"/>
				<polygon fill="#F0AD1D" points="142.2,349.1 142.2,347.9 141.7,347.5 141.3,347 140.4,348.7 140.8,349.1 				"/>
			</g>
			<g>
				<path fill="#B3B3B3" d="M283.4,641.9l-6.3-29.4l-2.4-12.9l-5.9-36.5l-1.2-3L263,540l-0.9-2.1l-2.4,3l-7.7,15.6l-0.7,3.7l-1.7,21
					l-1.7,58.7l-1.2,12.6l-1.2,9.7h-0.9l-2.1-7.1l1.2-16.8l-2.1-40.4l-2.1-18.9l-3.7-16.8l-1.7-2.1h-2.4l-6.3,0.5l-5.1,3l-2.4,2.8
					l-5.6,28.7l-5.4,37.2v2.6l-0.9,6.6l-1.2,20.6h-25.5l15-21.4l9.6-10.8l1.4-44.6l1.2-12.1l0.3-8l2.1-5.8l1.7-2.6l10-8.7l9.8-4.2
					h1.2l0.9-1.2l3.7-1.4l5.4-2.8h1.4l7.5-7.2l2.4-5.1l-0.9-11.7l-4.5-8.4l-4.5-4.2l-4.2-2.1l-0.9-0.9l2.1-3l11.4-6.6l9.1-0.5
					l0.9-0.7l-0.4-2.6l-3.3-1.6l-1.7,0.7h-0.9v-5.8l1.2-6.3l0.9-7.5l-5.8-8.4l-8-6.3l-8-2.6l-5.4,0.9l-6.6,2.1l-6.3,7.2v5.4l0.9,0.9
					l0.3,8.7l0.9,16.8l-3.8,4.7l-15.6,22.6l-4.9,8.4l-3,5.9l-4.2,6.6l-11,23.1l-6.3,12.2l-5.8,13.8l-6.8,17.7L156,611l-1.2,3.3v1.7
					l-1.7,0.4h-1.2l6.6-22.2l16.8-46.2l2.1-3.8l12.6-36l11.7-32l7.7-16.3l-0.5-0.5l-15,12.6l-3,3l-0.9-0.9v-1.6l3.8-5.1l5.4-8.7
					l12.2-13.5l3.4-2.1l-11.9,5.2l-2,1.1l-12.6,10.8l-1.7,2.1l-7.2,7.5l-7.9,9.3l-14,18.5l-7.5,12.6l-11.7,19.2l-18,33.2l-2.1,3.7
					v1.7l-1.2,1.2l-1.4,4.7l-6.6,13.8l-2.1,6.6l-20.1,53.3l-2.6,5.1l-2.4,9.2H68.2l11-37l4.9-13.8l8-19.2l13.8-30.6l1.2-3l13.1-22.7
					l17.7-25.5l18.9-26V483l0.3-0.5l-0.9-0.7l-3.7,0.7l-8,5.6v0.7h-0.9l-1.6,2.6l-5.1,4.2l-12.6,14.7l-7.5,12.6l-0.9-0.9l5.4-12.9
					l0.9-1.4v-1.2l-2.1,0.9l-15.2,18l-10.5,15.9l-4.5,8.9l-10.5,21l-5.9,13.5l-5.4,12.6l-7.5,18.4l-2.1,7.2l-2.4,8.4l-1.9,9.7
					l-1.6,21.3h0h234.3L283.4,641.9z M67.4,662.1H55.7l13.1-37.7l10-26.6l2.6-6.6l4.9-12.6l3-5.1l3.8-8.4l0.9-1.6h1.2l-0.5,3.3
					l-2.8,5.8l-2.6,7.7l-4.5,12.6l-3.8,13.3l-5.8,21.8L70.3,647l-0.9,1.2l-0.4,4.2L67.4,662.1L67.4,662.1z M172.8,644l-1.2,9.8
					l-5.9,8.3h-11.7l6.6-19.7l8.9-30.2l5.8-19.2l2.1-3.8l1.7-5.4l7.2-21l0.7-0.9l1.7,0.9v4.2l-1.2,5.4l-5.9,29.4l-2.1,11.7
					l-3.3,17.3L172.8,644z"/>
				<polygon fill="#B3B3B3" points="53.6,94.4 66.7,94 75.8,96.5 78.7,98.2 80.5,98.2 83.5,100 83.5,94 77.2,91.6 72.1,89.8 
					51.1,89.5 38.9,93.2 31.7,98.6 31.7,100 31.4,104.2 39.4,98.6 				"/>
				<rect x="24.7" y="125.5" fill="#B3B3B3" width="0.3" height="1.2"/>
				<polygon fill="#B3B3B3" points="43.1,103.3 51.1,101.2 50.2,101.2 46.4,100.7 43.1,101.2 35.9,104.9 29.6,110.8 24.7,120.4 
					24.7,125.5 27.2,117.1 32.2,110.8 40.6,104.2 				"/>
				<polygon fill="#B3B3B3" points="70,167.8 70,180.9 73,195.6 75.4,184.6 76.6,171.3 75.4,159.4 74.5,152.4 72.4,146.1 
					73.3,143.5 66.2,136.9 61.1,134.2 58.6,136.3 58.6,140.5 59.9,140.5 62,141.1 66.2,144.4 71.6,157.3 71.6,160.3 				"/>
				<polygon fill="#B3B3B3" points="44.8,141.1 50.2,139.8 53.2,137.2 49,136.3 46.4,137.2 41,141.4 37.3,148.2 37.7,149.4 
					40.1,144.7 				"/>
				<polygon fill="#B3B3B3" points="46,147.7 53.2,147.3 56.9,148.6 62,148.6 62,146.8 56.9,144.4 56.5,144.7 49.9,144.7 
					45.7,146.1 39.4,151 38.9,153.6 41.5,150.3 				"/>
				<polygon fill="#B3B3B3" points="46.9,155.7 53.2,155.2 57.8,156.6 58.3,154 52.3,152.8 46.9,153.6 41.9,157.8 40.6,162 
					43.6,157.8 				"/>
				<polygon fill="#B3B3B3" points="49.4,183.4 52.3,181.8 55.3,181.8 61.6,183.9 62.5,179.2 61.1,179.2 59.5,177.9 59.9,166.2 
					57.8,163.6 51.5,163.6 51.1,164.5 46.9,166.2 46,170.8 46,180 46.4,180.4 44.8,182.1 43.6,183.9 43.6,187.2 46,184.6 				"/>
				<polygon fill="#B3B3B3" points="57.4,200.1 57.4,199.3 59.5,194.4 58.3,191.8 54.8,190.2 49,191.8 46,194.7 46,199.3 
					46.9,200.1 48.5,203.1 49,202.8 52.7,199.8 				"/>
				<polygon fill="#B3B3B3" points="64.9,365.5 66.2,364.3 67,363.8 74.5,354.2 77.9,347.9 77.2,342.4 77.2,314.3 78.4,293 
					77.5,291.2 76.6,275.7 75.8,265.2 72.4,252.6 63.7,237 57.8,219.9 55.7,211.9 54.8,211.9 52.7,212.7 51.5,224.4 50.2,262.2 
					51.1,281.6 53.2,295.8 53.6,300 54.8,305 62.5,352.9 				"/>
				<polygon fill="#B3B3B3" points="185.7,311.8 185.7,313.1 186.2,314.3 189.9,315.2 199.5,316 203.7,317.3 213,321.5 218.9,326.9 
					218.9,326 216,322.3 206.7,316.4 199.2,313.9 197.4,313.1 190.4,312.5 186.9,311.3 				"/>
				<polygon fill="#B3B3B3" points="166.5,316.4 158.5,321.8 157.6,324.4 158.5,328.1 159,327.8 166.5,323.6 167.4,322.7 
					169.8,321.5 179.4,315.5 181.5,312.5 179.1,312.5 173.1,314.3 				"/>
				<polygon fill="#B3B3B3" points="176.1,329.9 172.8,332.3 171.6,332.3 166.8,335.3 165.3,338.2 169.8,335.3 180.7,334.9 
					182.1,337 180,348.2 178.2,350.8 177.3,350.8 176.5,349.6 175.2,349.6 173.7,350 170.7,355.9 168.1,371.8 170.2,381.1 
					172.3,381.1 176.1,379.7 184.5,372.7 189.6,370.9 184.1,370.9 181.2,370.1 180,368.5 181.2,367.1 188.3,366.7 188.3,365.9 
					185.7,363.4 183.3,363.4 179.1,367.1 177,367.1 177,365.9 181.2,361.3 184.5,360.1 184.5,358 178.2,361.7 177,360.8 
					178.2,356.2 181.2,351.7 185.7,348.7 186.2,339.8 188.7,336.1 192.5,333.5 203.7,333.2 207.6,334.4 205.5,332 195,327.2 
					186.9,322.3 181.5,327.2 				"/>
				<polygon fill="#B3B3B3" points="63.7,376.9 86.3,353.3 94.6,344.5 96,344.5 96.7,345.4 96.7,345.8 91.8,356.2 84.2,367.1 
					98.5,352.1 102.3,347.9 104.4,344.9 101.8,345.8 100.6,344.5 105.1,336.5 104.4,336.5 97.3,340.7 90.4,345.8 89.2,345.8 
					88.9,345.4 88.9,344 92.2,339.1 85.6,346.6 77.5,358.3 70.9,367.1 70,367.1 67,370.9 66.2,370.9 63.7,374.8 59.5,379 
					56.5,383.2 				"/>
				<polygon fill="#B3B3B3" points="46.9,383.9 41.5,388.1 40.1,388.1 39.4,386.8 43.1,381.4 51.1,374.8 58.3,369.2 59.5,367.1 
					59,366.7 58.6,367.1 56.2,367.1 51.5,370.6 51.1,370.1 49.9,369.2 51.5,367.6 59.5,362.2 59.5,359.2 57.8,359.2 54.8,360.4 
					53.6,359.6 53.6,358.7 57.8,352.1 58.3,349.1 53.6,355.9 47.8,362.9 38.5,377.6 33.8,389.5 33.1,401.2 34.7,406.2 38,409.9 
					39.4,408.7 44.8,396.5 46,396.5 46.9,397.3 45.7,402.4 48.1,400 48.1,396.5 49,395.8 48.1,391 49,389.5 52,385.3 54.8,379.3 
					54.1,380.2 				"/>
				<polygon fill="#B3B3B3" points="200.9,352.4 197.4,351.2 196.7,357.5 200.4,363.8 208.4,352.4 				"/>
				<polygon fill="#B3B3B3" points="98.8,365.5 97.6,366.7 93.1,368.8 91.8,371.3 86.8,379.3 84.2,383.9 92.5,375.5 99.7,365.5 				
					"/>
				<polygon fill="#B3B3B3" points="75.4,446.8 76.2,444.6 75.8,445.2 				"/>
				<polygon fill="#B3B3B3" points="102.7,415 101.8,415 91.3,426.7 89.8,425.5 89.8,424.6 92.5,413.8 94.3,398.6 93.1,406.9 
					89.2,420.1 85.9,426.3 83.8,429.3 83.8,430.5 82.6,431.4 78.7,437.7 76.2,444.6 83.8,434.2 86.3,434.2 87.1,435.6 85,441 
					77.9,455.7 70,474.1 88.9,438.9 106.9,409.9 				"/>
				<path fill="#B3B3B3" d="M58.3,547.1l3.3-6.3l17.1-25.5l2.6-0.9l0.3,0.4l0.4,1.2l-1.6,2.6l-3.8,10.5l-1.2,3.7L73,547.1l-0.5,12.6
					l1.7-7.5l4.2-12.2l3.7-8.7l4.2-8l6.3-12.9l10.1-16.8l15-18.9l30.8-29l12.6-10.5l6.3-3.3l13.8-5.9l14.2-6.3l-0.7-2.1l-6.3-4.9
					l-3-0.5l-3.8,1.7l-6.3-3l-2.4-2.4h-1.2l-2.6,5.4h-0.9l-1.6-1.2l-4.2-2.1l-10.5-2.1l-5.1,0.7l-3,0.5l-1.2,1.6l-8.7,7.7l-1.7-1.4
					l1.2-2.4l2.1-4.2l1.7-7.5l-0.9,0.9l-2.4,4.9l-5.1,7.2l-4.2,6.3h-2.6v-1.2l4.7-10.8l2.4-8.9l-1.2,2.6l-5.4,9.1l-2.6,8l-5.8,17.1
					l-2.6,5.1l-7.5,19.8l-2.1-0.9l0.9-6.6l1.2-6.3l2.6-10.5l-3.5,7.2l-6.3,10.8l-2.4,7.2l-3.3,8.4l-3,10l-17.7,22.7l-7.2,12.9
					l0.5,0.5l-2.6,7.5l-0.7,2.1l-7.7,28.1l1.7-3.8L58.3,547.1z M127,444l4.7-9.8l-0.5-0.3l1.2-1.7l1.4,1.4l-1.4,8.4l-3.7,10.8
					l-8,7.2l-2.1,0.9h-1.2L127,444z"/>
				<polygon fill="#B3B3B3" points="78.4,402.1 71.6,410.8 69.1,423.7 66.2,447.7 				"/>
				<polygon fill="#B3B3B3" points="214.7,429.7 214.2,429.3 211.4,427.9 207.2,427.6 191.7,433.5 178.6,438.9 174.9,440.2 
					150.6,457.3 135,470.8 133.3,469.2 135.9,466.2 126.1,474.9 112.3,491.7 103.9,505.2 107.8,501 127,485.1 143.8,473.4 
					175.8,456.1 188.3,448.2 204.6,438.9 213.9,435.6 213.5,435.1 209.7,433.9 209.7,432.1 				"/>
				<path fill="#B3B3B3" d="M322.7,572.3l0.9-0.5l17.1-0.3l10.5-0.9h5.6l2.1,3l-6.8,8.7l-3.3,0.9l-7.5-0.9l-15.6,1.4l2.1,7.9
					l0.3,14.3v2.4l-0.7,0.9v10.1l-3,6.3l-1.7,7l0.9-0.7l8-12.2l7.9-10.8l8.9-13.5l8.7-13.5l5.1-9.3l-4.2-7.2l-0.5-4.5l2.6-3v-1.6
					l1.6-3.5l3.8-2.8l5.9-1.4l0.7-3.7l3.5-1.7h4.2l3.3,1.2l-0.5-1.2l-2.1-3v-4.9l1.7-3.5l3.8-1.2h7l5.1-9.6l-4.5,0.9l-0.9-0.9v-1.2
					l7.5-5.9l-18,2.1l-10.5,2.1l-8.7,0.9l-4.7,1.2l-0.4-0.3l-7.2,1.6l-1.7,5.6l-4.9,2.8l-1.7,2.1l-22.2,29.9v2.1l1.2,8.4H322.7z
					 M350.8,555.9l-5.4,4.7l-1.2,2.1l-2.6,0.7h-6.3v-1.6l3.8-4.7l2.4-1.6v-0.9l2.6-0.9l4.9,0.5h1.4l0.3,0.3V555.9z M347.9,537
					l12.6-0.9l7.5,0.5v2.1l-6.6,7.2v1.2l-19.2,0.3l-0.5,0.5l-0.9-1.4L347.9,537z"/>
			</g>
			<g>
				<path fill="#4B6368" d="M360.7,623.9l3.8-3.7l7-3.8l9.3-6.3l1.2-2.1l6.3-15.6l5.1-12.9l0-0.1l2.6-7.1l4.5-10.8l5.1-13.1l0.9-5.4
					l-4.2-8.7v-3l10.5-14.7l-2.6-3.3l0.5-0.5h0.7l5.1-4.2l-5.3-4.3l-1-0.8l-1.2-2.1l-7.5-0.4l-2.6,0.9l-23.1,3.3L352,509l-2.6,1.6
					v2.6l-2.1,2.8l-6.3,3l-4.5,7.2l-8.9,12.6l-7.3,9.7l-1.5,2l-0.3-0.3v-0.5l-0.4-0.5l-8.5-8.6l-15-20.3l-4.7-12.6l-2.1-11.2
					l-1.2-3.5l-0.7-1.8l-5.6-15.7l-4.2-8l-5.1-7.2l-4.8-4.5l-6.4-6l-9.8-5.8l-7-6.8l-1.7-7.2l-2.1-6.3l-3.8-12.6l2.6-2.1l1.2-3.3
					l-1.1-5.3l-0.7-3.5l-0.7-3.3l-0.9-1.4l-1.2-8.4L234,376l2.6-3.8v-6.3l0.4-11.7l13.8-0.9l39-3.3v-0.9l-0.4-0.4l-10.1-1.2
					l-26.7-2.6l-14.7-2.4l-3-12.2l3.8-3.3h1.2l3.3-2.4l24-11.9l7.5-4.5l6.6-2.4l1.7-1.7l-0.3-1.2l-6.3,2.1l-17.7,5.4l-12.6,4.5
					l-15.2,4.2l-1.2-2.4L221,305l6.6-10.8l8.9-13.1l11.7-18l1.2-3.3l-1.2-0.3L226.8,282l-17.1,16.4l-7.5-2.6l-3.3-1.6l-3.8-0.5
					l-2.4-2.1l-2.1-12.6l-1.7-13.3l-4.2-23.9l-1.7-8.4l-0.7,0.9l-0.5,33.9v3.3l-0.9,20.6l-1.2,2.1l-4.2,0.9l-12.1,4.2l-5.6-4.2v-0.9
					l-21.3-18.9l-17.1-15.2l-1.4,0.9l0.5,0.5l4.2,6.6l9.6,13.5l19.8,26.7l-1.2,1.4l-1.4,0.3l-6.6,10.1l-2.4,0.7l-38.3,0.5l-1.2-4.7
					l-0.4-7.5l-2.6-20.5l-4.5-25.2l-4.2-17.7l-0.9-2.6L85,230l-1.2-10.1v-18l1.7-24.3l-0.9-15.2l-2.1-6.3l-0.9-4.5l-1.7-2.1l8.9-4.7
					l6.3-5.8l4.5-11l0.5-10.8l-0.9-2.4l2.1-2.1v-3.5h-0.9l-0.9-0.3l-2.1-5.4l1.2-1.8v-3l-2.4-0.3l-2.4,0.9l-4.7-4.2l0.5-2.6
					l-0.9-2.4H88l-3,2.4l-2.1-1.2l4.2-6.3l1.2-7.2l-0.7-2.4l-3-5.9l-8.9-7.9l-2.1-2.6L72.4,55l0.9-4.2l-1.2-0.5l-4.7,3.5l-4.5,6.3
					l-6.6,5.4l-7.7,6.3L46,76l-0.3,4.5l1.2,2.1l-1.7,3.8L40.1,89l-3.3-1.2l-2.4,1.7v1.6l-5.9,5.4L26.8,97l-0.9,1.6l1.6,4.2v0.5
					l-0.7,5.1l-6.3,11.7l-0.5,7.5l4.2,7.5l6.3,7.2l3.8,2.4v5.6l1.2,1.6l-0.4,4.7l0.3,0.5l1.3,2.3v4.2l1.7,6.3l0.9,0.9v1.7l3.7,6.6
					l-2.4,2.6v3.3l-0.9,5.8l3,5.9v5.1l2.4,3.3l0.5,4.2l2.4,3.3v1.7l-0.9,10l-0.3,58.7l3.7,21.5l6.8,39l-17.7,24.8l-6.3,12.1l-3.3,11
					l-0.9,10.8l3.8,9.6l5.4,6.8l10.8,7.9v0.9l-1.2,2.4l-3.3,11.4l-0.5,13.5l1.4,3l3.3,2.4l3,4.2l4.9,5.4v1.4l-0.7,0.7v8.4l1.2,5.1
					l1.2,1.2v1.7l-0.9,2.1l-2.4,10.8v12.2l3,7.5l-5.6,18l-2.8,13.1l-1.4,2.1l-3.7,13.8l-2.1,19.8l1.6,13.8l1.4,10.1l5.8,23.8
					L49,646.1l-2.1,16h6.3l1.9-21.2l1.1-9.9l2.4-8.4l2.1-7.2l7.5-18.4l5.4-12.6l5.9-13.5l10.5-21l4.5-8.9l10.5-15.9l15.2-18l2.1-0.9
					v1.2l-0.9,1.4l-5.4,12.9l0.9,0.9l7.5-12.6l12.6-14.7l5.1-4.2l1.6-2.6h0.9v-0.7l8-5.6l3.7-0.7l0.9,0.7l-0.3,0.5v1.2l-18.9,26
					l-17.7,25.5l-13.1,22.7l-1.2,3l-13.8,30.6l-8,19.2l-4.9,13.8l-11,37h13.5l2.4-9.2l2.6-5.1l20.1-53.3l2.1-6.6l6.6-13.8l1.4-4.7
					l1.2-1.2v-1.7l2.1-3.7l18-33.2l11.7-19.2l7.5-12.6l14-18.5l7.9-9.3l7.2-7.5l1.7-2.1l12.6-10.8l2-1.1l3.4-1.9l1.6-1.2l7.2-3
					l0.5,0.3l-0.8,0.5l-3.4,2.1l-12.2,13.5l-5.4,8.7l-3.8,5.1v1.6l0.9,0.9l3-3l15-12.6l0.5,0.5l-7.7,16.3l-11.7,32l-12.6,36
					l-2.1,3.8l-16.8,46.2l-6.6,22.2h1.2l1.7-0.4v-1.7l1.2-3.3l1.6-6.3l6.8-17.7l5.8-13.8l6.3-12.2l11-23.1l4.2-6.6l3-5.9l4.9-8.4
					l15.6-22.6l3.8-4.7l-0.9-16.8l-0.3-8.7l-0.9-0.9v-5.4l6.3-7.2l6.6-2.1l5.4-0.9l8,2.6l8,6.3l5.8,8.4l-0.9,7.5l-1.2,6.3v5.8h0.9
					l1.7-0.7l3.3,1.6l0.4,2.6l-0.9,0.7l-9.1,0.5l-11.4,6.6l-2.1,3l0.9,0.9l4.2,2.1l4.5,4.2l4.5,8.4l0.9,11.7l-2.4,5.1l-7.5,7.2h-1.4
					l-5.4,2.8l-3.7,1.4l-0.9,1.2h-1.2l-9.8,4.2l-10,8.7l-1.7,2.6l-2.1,5.8l-0.3,8l-1.2,12.1l-1.4,44.6l-9.6,10.8l-15,21.4h25.5
					l1.2-20.6l0.9-6.6v-2.6l5.4-37.2l5.6-28.7l2.4-2.8l5.1-3l6.3-0.5h2.4l1.7,2.1l3.7,16.8l2.1,18.9l2.1,40.4l-1.2,16.8l2.1,7.1h0.9
					l1.2-9.7l1.2-12.6l1.7-58.7l1.7-21l0.7-3.7l7.7-15.6l2.4-3l0.9,2.1l4.5,20.1l1.2,3l5.9,36.5l2.4,12.9l6.3,29.4l3.5,20.2h0h70.5
					l1.2-6.7l0.3-8.4l0.7-3.7l0.7-3.4L360.7,623.9z M320.2,561.8l22.2-29.9l1.7-2.1l4.9-2.8l1.7-5.6l7.2-1.6l0.4,0.3l4.7-1.2
					l8.7-0.9l10.5-2.1l18-2.1l-7.5,5.9v1.2l0.9,0.9l4.5-0.9l-5.1,9.6h-7l-3.8,1.2l-1.7,3.5v4.9l2.1,3l0.5,1.2l-3.3-1.2h-4.2
					l-3.5,1.7l-0.7,3.7l-5.9,1.4l-3.8,2.8l-1.6,3.5v1.6l-2.6,3l0.5,4.5l4.2,7.2l-5.1,9.3l-8.7,13.5l-8.9,13.5l-7.9,10.8l-8,12.2
					l-0.9,0.7l1.7-7l3-6.3v-10.1l0.7-0.9v-2.4l-0.3-14.3l-2.1-7.9l15.6-1.4l7.5,0.9l3.3-0.9l6.8-8.7l-2.1-3h-5.6l-10.5,0.9
					l-17.1,0.3l-0.9,0.5h-1.2l-1.2-8.4V561.8z M196.7,357.5l0.7-6.3l3.5,1.2h7.5l-8,11.4L196.7,357.5z M230.6,337.4l-0.9,2.1
					l-0.9-0.9l0.9-1.2H230.6z M228.9,329.9v1.6l-1.6,2.1l-1.7-1.6v-0.9l2.1-1.2H228.9z M227.3,323l-2.1,4.7l-1.2,0.3l-2.1-3.3
					l4.5-2.4L227.3,323z M221.9,314.6l0.7,0.5l1.4,1.2l-2.6,4.2l-1.2,1.2l-3-3.3L221.9,314.6z M210.5,310.4l3.3-2.1h1.2l1.2,3
					l-1.2,4.7l-5.1-3L210.5,310.4z M201.6,305.9l1.7-2.4h3.8v8.4l-5.1-1.7h-0.5V305.9z M192.5,301.7l1.2-2.4l1.6-0.5l0.5,0.5h1.2
					l1.2,4.2l-0.9,5.8l-4.9-0.9V301.7z M190.4,312.5l7,0.5l1.7,0.9l7.5,2.4l9.3,5.9l3,3.7v0.9l-5.9-5.4l-9.3-4.2l-4.2-1.2l-9.6-0.9
					l-3.7-0.9l-0.5-1.2v-1.2l1.2-0.5L190.4,312.5z M182.7,300.5l2.1-2.6l1.7,0.5l1.7,3.7v5.9h-5.6V300.5z M186.9,322.3l8,4.9
					l10.5,4.7l2.1,2.4l-3.8-1.2l-11.2,0.3l-3.8,2.6l-2.4,3.7l-0.5,8.9l-4.5,3l-3,4.5l-1.2,4.5l1.2,0.9l6.3-3.7v2.1l-3.3,1.2
					l-4.2,4.5v1.2h2.1l4.2-3.7h2.4l2.6,2.4v0.9l-7.2,0.3l-1.2,1.4l1.2,1.6l3,0.9h5.4l-5.1,1.7l-8.4,7l-3.8,1.4h-2.1l-2.1-9.3
					l2.6-15.9l3-5.9l1.6-0.3h1.2l0.9,1.2h0.9l1.7-2.6l2.1-11.2l-1.4-2.1l-10.8,0.3l-4.5,3l1.6-3l4.7-3h1.2l3.3-2.4l5.4-2.6
					L186.9,322.3z M181.5,312.5l-2.1,3l-9.6,5.9l-2.4,1.2l-0.9,0.9l-7.5,4.2l-0.5,0.3l-0.9-3.7l0.9-2.6l8-5.4l6.6-2.1l5.9-1.7H181.5
					z M173.1,300.5l1.2-1.2l2.6,0.3l1.2,1.7v7.9l-1.2,0.9l-0.9-0.9l-2.1,0.9h-0.9l-0.9-5.4L173.1,300.5z M164.7,303.8h1.2l1.4,2.1
					l1.6,5.4l-4.2,2.1l-1.6-5.4L164.7,303.8z M156,308.9l3,1.2l2.4,3.3v1.2l-3,2.6l-3-3.8L156,308.9z M150.1,316.4l1.2-0.4l3.8,2.1
					v2.4l-3,2.4l-2.4-3.3L150.1,316.4z M145,323h1.7l2.4,2.1l-0.7,5.1l-3.8-5.1L145,323z M142.5,330.7l3.3,1.6v3.3l-1.2,1.4
					l-2.1-2.6V330.7z M141.7,339.8h2.6l-0.5,4.2l-3-3.3L141.7,339.8z M141.3,347l0.3,0.5l0.5,0.3v1.2h-1.4l-0.3-0.4L141.3,347z
					 M141.7,375.1h1.7l0.9,1.2l-1.4,3.3l-1.2,0.9l-1.2,2.1l-3.8,0.9l-0.3-2.1l-2.1-1.7l-3-0.7l-3.7-5.9l-5.9-2.4l-2.4-5.6l0.3-7
					v-1.4h16.4l1.6,2.6l-0.3,13.5L141.7,375.1z M112.8,331.1l25.2,2.4l-1.7,10.5l0.3,0.5l-1.2,0.9l-5.4,0.3l-9.6,1.2l-3-0.3
					l-2.1-3.8v-5.4l-3-4.5L112.8,331.1z M88.9,438.9L70,474.1l7.9-18.4L85,441l2.1-5.4l-0.9-1.4h-2.4l-7.6,10.4l-0.8,2.2l0.3-1.6
					l0.5-0.6l2.5-6.9l3.8-6.3l1.2-0.9v-1.2l2.1-3l3.3-6.3l3.8-13.1l1.2-8.4l-1.7,15.2l-2.8,10.8v0.9l1.6,1.2l10.5-11.7h0.9l4.2-5.1
					L88.9,438.9z M69.1,423.7l2.4-12.9l6.8-8.7l-12.2,45.6L69.1,423.7z M84.2,383.9l2.6-4.5l5.1-8l1.2-2.4l4.5-2.1l1.2-1.2h0.9
					l-7.2,10L84.2,383.9z M48.5,75.2l5.1-5.9l10.1-7.5l6.6-8.4l0.9,4.7l2.4,4.5l3.5,2.1v3l1.2,2.1l-1.7,7.5l-2.1,2.4l-0.9,0.9
					l-1.2-3.3l-0.3-0.3h-1.2l-2.6,4.2l-2.1,1.6l-0.9-1.2l-1.2-0.9h-3L59,83.2l-7.9,0.7l-2.6-2.1L47.3,79L48.5,75.2z M31.7,100v-1.4
					l7.2-5.4l12.2-3.7l21,0.3l5.1,1.7l6.3,2.4v5.9l-3-1.7h-1.7l-3-1.7L66.7,94l-13.1,0.3l-14.2,4.2l-8,5.6L31.7,100z M66.2,144.4
					l-4.2-3.3l-2.1-0.5h-1.2v-4.2l2.4-2.1l5.1,2.6l7.2,6.6l-0.9,2.6l2.1,6.3l0.9,7l1.2,11.9l-1.2,13.3l-2.4,11l-3-14.7v-13.1
					l1.6-7.5v-3L66.2,144.4z M39.4,151l6.3-4.9l4.2-1.4h6.6l0.4-0.3l5.1,2.4v1.7h-5.1l-3.7-1.2l-7.2,0.3l-4.5,2.6l-2.6,3.3L39.4,151
					z M37.7,149.4l-0.4-1.2l3.7-6.8l5.4-4.2l2.6-0.9l4.2,0.9l-3,2.6l-5.4,1.2l-4.7,3.7L37.7,149.4z M32.2,110.8l-5.1,6.3l-2.4,8.4
					h0.3v1.2h-0.3v-1.2v-5.1l4.9-9.6l6.3-5.9l7.2-3.7l3.3-0.5l3.8,0.5h0.9l-8,2.1l-2.4,0.9L32.2,110.8z M40.6,162l1.2-4.2l5.1-4.2
					l5.4-0.9l5.9,1.2l-0.5,2.6l-4.5-1.4l-6.3,0.5l-3.3,2.1L40.6,162z M43.6,187.2v-3.3l1.2-1.7l1.6-1.7L46,180v-9.3l0.9-4.5l4.2-1.7
					l0.4-0.9h6.3l2.1,2.6l-0.3,11.7l1.6,1.2h1.4l-0.9,4.7l-6.3-2.1h-3l-3,1.6l-3.3,1.2L43.6,187.2z M48.5,203.1l-1.6-3l-0.9-0.9
					v-4.5l3-3l5.8-1.6l3.5,1.6l1.2,2.6l-2.1,4.9v0.9l-4.7-0.3l-3.7,3L48.5,203.1z M54.8,305l-1.2-5.1l-0.3-4.2l-2.1-14.2l-0.9-19.4
					l1.2-37.8l1.2-11.7l2.1-0.9h0.9l2.1,8l5.9,17.1l8.7,15.6l3.3,12.6l0.9,10.5l0.9,15.6l0.9,1.7l-1.2,21.3v28.1l0.7,5.4l-3.3,6.3
					l-7.5,9.6l-0.9,0.5l-1.2,1.2l-2.4-12.6L54.8,305z M52,385.3l-3,4.2l-0.9,1.6l0.9,4.7l-0.9,0.7v3.5l-2.4,2.4l1.2-5.1l-0.9-0.9
					h-1.2l-5.4,12.2l-1.4,1.2l-3.3-3.7l-1.6-5.1l0.7-11.7l4.7-11.9l9.3-14.7l5.8-7l4.7-6.8l-0.5,3l-4.2,6.6v0.9l1.2,0.9l3-1.2h1.7v3
					l-8,5.4l-1.6,1.6l1.2,0.9l0.4,0.5l4.7-3.5h2.4l0.3-0.3l0.5,0.3l-1.2,2.1l-7.2,5.6l-8,6.6l-3.7,5.4l0.7,1.2h1.4l5.4-4.2l7.2-3.7
					l0.7-0.9L52,385.3z M56.5,383.2l3-4.2l4.2-4.2l2.4-3.8H67l3-3.8h0.9l6.6-8.7l8-11.7l6.6-7.5l-3.3,4.9v1.4l0.3,0.3h1.2l6.8-5.1
					l7.2-4.2h0.7l-4.5,8l1.2,1.2l2.6-0.9l-2.1,3l-3.8,4.2l-14.3,15l7.7-10.8l4.9-10.5v-0.3l-0.7-0.9h-1.4l-8.4,8.7l-22.6,23.6
					L56.5,383.2z M60.4,528.3l0.7-2.1l2.6-7.5l-0.5-0.5l7.2-12.9L88,482.5l3-10l3.3-8.4l2.4-7.2l6.3-10.8l3.5-7.2l-2.6,10.5
					l-1.2,6.3l-0.9,6.6l2.1,0.9l7.5-19.8l2.6-5.1l5.8-17.1l2.6-8l5.4-9.1l1.2-2.6l-2.4,8.9l-4.7,10.8v1.2h2.6l4.2-6.3l5.1-7.2
					l2.4-4.9l0.9-0.9l-1.7,7.5l-2.1,4.2l-1.2,2.4l1.7,1.4l8.7-7.7l1.2-1.6l3-0.5l5.1-0.7l10.5,2.1l4.2,2.1l1.6,1.2h0.9l2.6-5.4h1.2
					l2.4,2.4l6.3,3l3.8-1.7l3,0.5l6.3,4.9l0.7,2.1l-14.2,6.3l-13.8,5.9l-6.3,3.3l-12.6,10.5l-30.8,29l-15,18.9l-10.1,16.8l-6.3,12.9
					l-4.2,8l-3.7,8.7l-4.2,12.2l-1.7,7.5l0.5-12.6l2.4-14.3l1.2-3.7l3.8-10.5l1.6-2.6l-0.4-1.2l-0.3-0.4l-2.6,0.9l-17.1,25.5
					l-3.3,6.3l-3.8,5.4l-1.7,3.8L60.4,528.3z M213.5,435.1l0.3,0.5l-9.3,3.3l-16.3,9.3l-12.6,7.9l-32,17.3L127,485.1L107.8,501
					l-3.8,4.2l8.4-13.5l13.8-16.8l9.8-8.7l-2.6,3l1.7,1.6l15.6-13.5l24.3-17.1l3.7-1.2l13.1-5.4l15.6-5.9l4.2,0.4l2.8,1.4l0.5,0.3
					l-5.1,2.4v1.7L213.5,435.1z"/>
				<polygon fill="#4B6368" points="120.7,459.9 128.7,452.7 132.4,441.9 133.8,433.5 132.4,432.1 131.2,433.9 131.7,434.2 127,444 
					117.4,460.8 118.6,460.8 				"/>
				<polygon fill="#4B6368" points="181.5,601.7 187.5,572.3 188.7,566.9 188.7,562.7 186.9,561.8 186.2,562.7 179.1,583.7 
					177.3,589.1 175.2,592.9 169.5,612.2 160.5,642.4 153.9,662.1 165.6,662.1 171.6,653.8 172.8,644 176.1,630.7 179.4,613.4 				
					"/>
				<polygon fill="#4B6368" points="69.5,648.2 70.3,647 75.1,628.1 80.8,606.2 84.7,592.9 89.2,580.4 91.8,572.7 94.6,566.9 
					95.2,563.6 93.9,563.6 93.1,565.2 89.2,573.5 86.3,578.6 81.4,591.2 78.7,597.8 68.8,624.4 55.7,662.1 67.4,662.1 67.4,662.1 
					69.1,652.4 				"/>
				<polygon fill="#4B6368" points="341.6,548 342.1,547.5 361.3,547.2 361.3,545.9 368,538.8 368,536.7 360.4,536.2 347.9,537 
					340.7,546.6 				"/>
				<polygon fill="#4B6368" points="349.1,554.3 344.2,553.8 341.6,554.7 341.6,555.6 339.1,557.1 335.3,561.8 335.3,563.4 
					341.6,563.4 344.2,562.7 345.4,560.6 350.8,555.9 350.8,554.7 350.5,554.3 				"/>
			</g>
		</g>
	</g>
</g>
</svg>
