<?xml version="1.0" encoding="utf-8"?>
<!-- Generator: Adobe Illustrator 18.1.1, SVG Export Plug-In . SVG Version: 6.00 Build 0)  -->
<svg version="1.1" id="Layer_1" xmlns="http://www.w3.org/2000/svg" xmlns:xlink="http://www.w3.org/1999/xlink" x="0px" y="0px"
	 viewBox="0 0 493.3 493.3" enable-background="new 0 0 493.3 493.3" xml:space="preserve">
<circle fill="#FFFFFF" stroke="#0055CC" stroke-width="3" stroke-miterlimit="10" cx="246.7" cy="246.7" r="245.2"/>
<circle fill="#0055CC" cx="246.7" cy="246.7" r="146.7"/>
<circle fill="none" stroke="#0055CC" stroke-width="5" stroke-miterlimit="10" cx="246.7" cy="246.7" r="157.2"/>
<rect x="83.2" y="187.8" fill="#FFFFFF" width="327" height="117.8"/>
<g>
	<path fill="#ED1C24" d="M58.2,144.5l20.1,9.3c3.4,1.6,5.5,3.9,6.3,7c0.8,3.1,0.4,6.5-1.3,10.1c-1.7,3.6-4,6.1-6.8,7.5
		s-6,1.3-9.4-0.3l-20.1-9.3l2.8-6.1l20.1,9.3c2,0.9,3.7,1.1,5.2,0.5s2.7-1.8,3.5-3.7c0.9-1.9,1.1-3.6,0.6-5.2
		c-0.5-1.5-1.7-2.8-3.7-3.7l-20.1-9.3L58.2,144.5z"/>
	<path fill="#ED1C24" d="M93.9,134.8c-1.1-0.7-2.2-0.9-3.3-0.6c-1.2,0.3-2.7,1.2-4.5,2.7c-3.2,2.6-6,4.3-8.5,5.1
		c-2.4,0.8-4.8,0.4-7.1-1.1s-3.4-3.8-3.6-6.7c-0.1-2.9,0.8-5.9,2.9-8.8c2.1-3,4.6-4.9,7.5-5.8c2.9-0.8,5.5-0.4,7.8,1.3l0.1,0.1
		l-3.7,5.4c-1.3-0.9-2.6-1.2-4-0.8c-1.4,0.3-2.6,1.2-3.6,2.8c-1,1.5-1.5,2.8-1.4,4.1c0.1,1.3,0.7,2.2,1.7,2.9c0.9,0.6,2,0.7,3.2,0.3
		c1.2-0.5,2.8-1.5,5-3.2c2.9-2.5,5.6-4,8.1-4.6c2.5-0.6,4.8-0.2,7.1,1.4c2.4,1.6,3.6,3.8,3.7,6.6c0.1,2.8-0.9,5.7-3,8.8
		c-2.1,3-4.6,5.1-7.7,6.3c-3.1,1.2-6,0.8-8.7-1.2l-0.1-0.1l3.7-5.4c1.6,1.1,3.2,1.4,4.6,1s2.8-1.6,4-3.4c1-1.5,1.5-2.9,1.4-4.1
		S94.9,135.5,93.9,134.8z"/>
	<path fill="#ED1C24" d="M114.5,113.3l-8.1,8.5l3.7,6.6l-4.7,4.9L89.1,102l4.7-5l32.1,14.7l-4.7,4.9L114.5,113.3z M103.7,117
		l5.8-6.1l-12.4-6l-0.1,0.1L103.7,117z"/>
	<path fill="#ED1C24" d="M132.5,100.8c0.9-0.7,1.5-1.6,1.6-2.6c0.1-1-0.2-1.9-0.9-2.8l4.8-3.8l0.1,0.1c1.6,1.9,2.2,4.2,1.7,6.7
		s-1.9,4.7-4.1,6.5c-2.9,2.3-5.9,3.1-8.9,2.6c-3-0.6-5.7-2.3-8-5.2l-0.4-0.5c-2.3-2.9-3.4-5.8-3.2-8.9c0.1-3.1,1.6-5.8,4.5-8.1
		c2.4-1.9,4.9-2.7,7.4-2.5c2.6,0.2,4.7,1.4,6.4,3.7l0,0.1l-4.8,3.8c-0.8-1-1.7-1.6-2.8-1.9c-1.1-0.2-2.1,0-3.1,0.8
		c-1.4,1.1-1.9,2.4-1.7,3.9c0.3,1.5,1.1,3.1,2.4,4.8l0.4,0.5c1.4,1.7,2.8,2.9,4.2,3.5C129.7,102.2,131.1,101.9,132.5,100.8z"/>
	<path fill="#ED1C24" d="M135.3,67.1l-5.6,3.6l-2.7-4.2l5.6-3.6L135.3,67.1z M152,92.9l-5.6,3.6l-13.4-20.9l5.6-3.6L152,92.9z"/>
	<path fill="#ED1C24" d="M164.7,78.1c-0.3-0.7-0.9-1.1-1.8-1.2c-0.9-0.2-2.3,0-4.2,0.5c-2.9,0.8-5.3,1-7.1,0.7
		c-1.9-0.4-3.3-1.4-4.2-3.2c-1-1.9-1-3.9-0.1-6.1c0.9-2.1,2.7-3.9,5.4-5.3c2.8-1.4,5.4-1.9,7.7-1.5c2.3,0.5,4,1.7,5,3.8l0,0.1
		l-5.8,3c-0.5-0.9-1.1-1.5-2-1.7c-0.9-0.3-1.8-0.1-2.9,0.4c-1,0.5-1.6,1.1-1.9,1.9c-0.3,0.8-0.3,1.5,0.1,2.2
		c0.3,0.7,0.9,1.1,1.7,1.2c0.8,0.1,2.2-0.1,4.1-0.6c3-0.9,5.4-1.1,7.3-0.7c1.9,0.4,3.3,1.5,4.2,3.3c1,2,1,4-0.1,6.2
		c-1.1,2.1-3,3.9-5.8,5.3c-2.9,1.5-5.6,2-8.1,1.3c-2.5-0.6-4.2-1.9-5.1-3.8l0-0.1l5.5-2.8c0.6,1.2,1.5,1.8,2.5,2
		c1,0.2,2.1-0.1,3.3-0.7c1.1-0.6,1.8-1.2,2.2-1.9C165.1,79.6,165.1,78.9,164.7,78.1z"/>
	<path fill="#ED1C24" d="M187,69c-0.2-0.7-0.8-1.2-1.6-1.4c-0.9-0.3-2.3-0.3-4.2,0c-3,0.4-5.3,0.3-7.1-0.2c-1.8-0.6-3-1.8-3.7-3.7
		c-0.7-2-0.5-4,0.7-6c1.2-2,3.2-3.5,6-4.5c3-1.1,5.6-1.2,7.9-0.5c2.3,0.8,3.7,2.2,4.4,4.4l0,0.1l-6.1,2.2c-0.3-0.9-0.9-1.6-1.7-2
		c-0.8-0.4-1.8-0.4-2.9,0.1c-1,0.4-1.7,0.9-2.1,1.6c-0.4,0.7-0.5,1.4-0.2,2.2c0.3,0.7,0.8,1.2,1.6,1.4c0.8,0.2,2.2,0.2,4.2-0.1
		c3.1-0.5,5.5-0.4,7.3,0.2c1.8,0.6,3,1.9,3.8,3.9c0.8,2.1,0.5,4.1-0.9,6.1c-1.3,2-3.5,3.5-6.4,4.6c-3.1,1.1-5.9,1.2-8.2,0.3
		c-2.4-0.9-3.9-2.4-4.5-4.5l0-0.1l5.8-2.1c0.5,1.2,1.2,2,2.2,2.3c1,0.3,2.1,0.2,3.3-0.3c1.2-0.4,2-1,2.4-1.6
		C187.2,70.5,187.3,69.8,187,69z"/>
	<path fill="#ED1C24" d="M234.7,52.3c0.5,4.1-0.3,7.6-2.5,10.6c-2.2,3-5.4,4.8-9.5,5.3c-4.1,0.5-7.6-0.3-10.5-2.7
		c-2.9-2.3-4.6-5.5-5.2-9.6l-0.8-6c-0.5-4,0.3-7.6,2.5-10.6c2.2-3,5.3-4.8,9.4-5.3c4.1-0.5,7.6,0.3,10.6,2.7
		c2.9,2.3,4.7,5.5,5.2,9.6L234.7,52.3z M227.3,47.2c-0.3-2.6-1.3-4.6-2.8-6.1c-1.5-1.5-3.4-2.1-5.7-1.8c-2.3,0.3-3.9,1.4-4.9,3.2
		c-1,1.8-1.4,4-1,6.6l0.8,6c0.3,2.6,1.3,4.7,2.7,6.2c1.5,1.5,3.3,2.1,5.6,1.8c2.3-0.3,3.9-1.4,5-3.2c1.1-1.8,1.4-4.1,1.1-6.7
		L227.3,47.2z"/>
	<path fill="#ED1C24" d="M253,47l-2.5,0c-1,0-1.8,0.2-2.4,0.7c-0.6,0.4-1.1,1-1.4,1.8l0.3,16.8l-6.7,0.1l-0.4-24.8l6.2-0.1l0.4,3.7
		c0.6-1.3,1.3-2.3,2.2-3.1c0.9-0.7,2-1.1,3.2-1.1c0.3,0,0.6,0,0.9,0.1c0.3,0,0.6,0.1,0.9,0.2L253,47z"/>
	<path fill="#ED1C24" d="M256.1,53.8c0.4-3.9,1.6-6.9,3.6-9.1s4.5-3.1,7.5-2.8c1.4,0.2,2.6,0.6,3.5,1.3c1,0.7,1.8,1.7,2.4,3l0.9-3.1
		l5.7,0.6l-2.7,24.6c-0.3,3.2-1.7,5.6-4,7.1c-2.3,1.5-5.3,2.1-9.1,1.7c-1.2-0.1-2.6-0.5-3.9-0.9s-2.6-1.1-3.7-1.8l1.8-4.8
		c1,0.6,2,1.1,3,1.4c1,0.4,2.2,0.6,3.4,0.8c1.8,0.2,3.2,0,4.2-0.7s1.5-1.8,1.7-3.4l0.2-2.2c-0.8,0.8-1.8,1.5-2.8,1.8
		c-1,0.4-2.2,0.5-3.5,0.4c-3-0.3-5.3-1.7-6.7-4.1s-2-5.4-1.6-9.1L256.1,53.8z M262.7,55c-0.2,2.2-0.1,3.9,0.5,5.2
		c0.6,1.3,1.7,2.1,3.4,2.3c1,0.1,1.9,0,2.7-0.3c0.7-0.3,1.4-0.8,1.9-1.5l1.2-10.8c-0.3-0.8-0.8-1.4-1.5-1.9s-1.5-0.8-2.5-0.9
		c-1.6-0.2-2.9,0.4-3.8,1.8c-0.9,1.4-1.5,3.2-1.7,5.6L262.7,55z"/>
	<path fill="#ED1C24" d="M295.2,72.7c-0.1-0.6-0.2-1.2-0.2-1.9s0-1.3,0.1-2c-1,1-2.1,1.8-3.4,2.3c-1.3,0.5-2.7,0.6-4.2,0.2
		c-2.5-0.6-4.3-1.8-5.3-3.4c-1-1.6-1.3-3.6-0.7-5.8c0.6-2.4,2-4,4.1-4.8c2.1-0.8,5-0.8,8.4,0.1l3.6,0.9l0.5-1.9
		c0.3-1.2,0.2-2.1-0.2-2.9c-0.4-0.8-1.3-1.3-2.5-1.6c-1.1-0.3-1.9-0.2-2.6,0.2c-0.7,0.4-1.2,1-1.4,1.9l-6.3-1.6l0-0.1
		c0.4-2.1,1.7-3.6,4-4.6c2.2-1,4.9-1.1,7.9-0.4c2.9,0.7,5,2,6.5,4c1.4,1.9,1.8,4.2,1.1,6.9l-2.5,9.9c-0.3,1.1-0.5,2.2-0.5,3.2
		c-0.1,1-0.1,2.1,0.1,3.2L295.2,72.7z M290.3,66.9c1.1,0.3,2.2,0.3,3.3-0.1c1-0.3,1.8-0.8,2.3-1.5l0.9-3.4l-3.6-0.9
		c-1.4-0.3-2.5-0.3-3.4,0.2c-0.9,0.5-1.5,1.3-1.7,2.2c-0.2,0.8-0.1,1.5,0.3,2.1C288.7,66.2,289.4,66.6,290.3,66.9z"/>
	<path fill="#ED1C24" d="M319.4,54.6l-1.1,3.4c1.2-0.9,2.6-1.4,3.9-1.6c1.4-0.2,2.8,0,4.2,0.5c2.3,0.9,3.8,2.4,4.6,4.4
		c0.7,2,0.4,4.5-0.8,7.7l-5.8,14.4l-6.2-2.5l5.8-14.4c0.6-1.5,0.8-2.8,0.4-3.7s-1.2-1.6-2.4-2.1c-0.8-0.3-1.6-0.5-2.4-0.4
		c-0.8,0.1-1.5,0.3-2.2,0.8l-6.8,16.7l-6.2-2.5l9.3-23L319.4,54.6z"/>
	<path fill="#ED1C24" d="M334.2,88.8l-5.9-3.1L340,63.7l5.9,3.1L334.2,88.8z M348.7,61.6l-5.9-3.1l2.4-4.4l5.9,3.1L348.7,61.6z"/>
	<path fill="#ED1C24" d="M347.5,90.8l10.3,6.8l-2.9,4.3l-17.2-11.4l2.2-3.3l18.5-6.6l-9.5-6.3l2.9-4.3l16.6,11l-2.1,3.2L347.5,90.8z
		"/>
	<path fill="#ED1C24" d="M368.5,113.4c0.2-0.6,0.4-1.2,0.7-1.8c0.3-0.6,0.6-1.2,1-1.7c-1.3,0.5-2.7,0.6-4,0.5
		c-1.4-0.1-2.6-0.7-3.8-1.7c-2-1.7-3-3.5-3.2-5.5c-0.2-1.9,0.5-3.8,2-5.5c1.6-1.8,3.5-2.6,5.8-2.4c2.3,0.2,4.8,1.5,7.5,3.9l2.8,2.5
		l1.3-1.5c0.8-0.9,1.2-1.8,1.1-2.7c0-0.9-0.5-1.8-1.4-2.6c-0.8-0.7-1.6-1.1-2.4-1.1c-0.8,0-1.5,0.4-2.1,1.1l-4.9-4.3l0.1-0.1
		c1.3-1.7,3.2-2.4,5.6-2.3c2.5,0.1,4.9,1.2,7.2,3.3c2.2,1.9,3.6,4.1,4,6.4c0.4,2.4-0.3,4.6-2.1,6.7l-6.7,7.7c-0.8,0.9-1.4,1.8-2,2.6
		c-0.5,0.9-1,1.8-1.4,2.9L368.5,113.4z M366.8,106c0.9,0.8,1.9,1.2,2.9,1.4c1.1,0.2,2,0.1,2.7-0.3l2.3-2.6l-2.8-2.5
		c-1.1-0.9-2.1-1.4-3.1-1.3c-1,0.1-1.9,0.5-2.5,1.2c-0.5,0.6-0.8,1.3-0.7,2C365.7,104.7,366.1,105.4,366.8,106z"/>
	<path fill="#ED1C24" d="M403.7,105.1l-4.5,4.1l2.8,3.1l-3.5,3.2l-2.8-3.1l-9.3,8.6c-0.7,0.7-1.1,1.3-1.1,1.8c0,0.6,0.2,1.1,0.6,1.6
		c0.2,0.3,0.5,0.5,0.7,0.6s0.4,0.3,0.7,0.5l-3.2,3.7c-0.6-0.3-1.2-0.7-1.7-1.1c-0.5-0.4-1-0.9-1.5-1.4c-1.6-1.7-2.3-3.4-2.2-5.2
		c0.1-1.8,1.1-3.6,3.2-5.5l9.3-8.6l-2.5-2.7l3.5-3.2l2.5,2.7l4.5-4.1L403.7,105.1z"/>
	<path fill="#ED1C24" d="M390.4,137.5l-4.2-5.3l19.5-15.4l4.2,5.3L390.4,137.5z M414.6,118.4l-4.2-5.3l3.9-3.1l4.2,5.3L414.6,118.4z
		"/>
	<path fill="#ED1C24" d="M403.6,133.4c3.1-2,6.2-2.7,9.3-2.3s5.6,2.3,7.6,5.3c2,3.1,2.5,6.2,1.6,9.2c-0.9,3-2.9,5.5-6,7.5l-0.4,0.3
		c-3.2,2-6.3,2.8-9.4,2.3c-3.1-0.5-5.6-2.3-7.6-5.4c-2-3.1-2.5-6.2-1.6-9.2c0.9-3,2.9-5.5,6-7.5L403.6,133.4z M406.8,139.3
		c-1.9,1.2-3.2,2.5-4,3.9s-0.6,2.9,0.3,4.4c0.9,1.5,2.2,2.2,3.8,2.1c1.6-0.1,3.3-0.7,5.2-1.9l0.4-0.3c1.9-1.2,3.2-2.5,3.9-3.9
		c0.7-1.4,0.6-2.9-0.3-4.4c-0.9-1.5-2.2-2.2-3.8-2.1c-1.6,0.1-3.3,0.7-5.2,1.9L406.8,139.3z"/>
	<path fill="#ED1C24" d="M432,158.1l-3.1,1.7c1.5,0.2,2.8,0.8,4,1.6c1.1,0.8,2,1.9,2.6,3.3c1,2.3,1.1,4.4,0.3,6.3
		c-0.9,1.9-2.8,3.6-5.9,5l-14.1,6.4l-2.8-6.1l14.1-6.4c1.5-0.7,2.5-1.5,2.8-2.4c0.4-0.9,0.3-2-0.3-3.2c-0.4-0.8-0.9-1.5-1.5-2
		c-0.6-0.5-1.3-0.8-2.1-1l-16.5,7.4l-2.8-6.1l22.6-10.2L432,158.1z"/>
</g>
<g>
	<path fill="#0055CC" d="M78.6,248.1l-23.1,9.5l0,0.1l24,6.9L80,273l-31.9,1.8l-0.4-6.4l9.5-0.5l14.1-0.2l0-0.1l-24.1-7.2L47,256
		l23.1-9.9l0-0.1l-14,1.4l-9.5,0.5l-0.4-6.4l31.9-1.8L78.6,248.1z"/>
	<path fill="#0055CC" d="M53.2,297.1c0.5-0.4,1-0.7,1.5-1c0.5-0.3,1.1-0.6,1.7-0.8c-1.3-0.4-2.4-1-3.4-1.9s-1.7-2-2-3.5
		c-0.6-2.4-0.4-4.4,0.5-6c0.9-1.6,2.5-2.7,4.6-3.2c2.3-0.5,4.2-0.1,5.9,1.4c1.7,1.5,2.9,3.9,3.7,7.2l0.8,3.5l1.8-0.4
		c1.1-0.3,1.9-0.8,2.4-1.5c0.5-0.7,0.6-1.7,0.3-2.8c-0.2-1-0.7-1.7-1.3-2.2c-0.6-0.4-1.4-0.5-2.2-0.3l-1.4-6l0.1-0.1
		c1.9-0.6,3.8-0.1,5.7,1.3c1.8,1.5,3.1,3.7,3.8,6.6c0.7,2.8,0.5,5.2-0.5,7.2s-2.8,3.4-5.4,4l-9.6,2.3c-1.1,0.3-2.1,0.6-3,1
		c-0.9,0.4-1.8,0.9-2.7,1.5L53.2,297.1z M56,290.4c0.3,1.1,0.8,2,1.5,2.7c0.7,0.7,1.5,1.2,2.3,1.3l3.3-0.8l-0.8-3.5
		c-0.3-1.3-0.9-2.3-1.7-2.8c-0.8-0.5-1.7-0.7-2.6-0.5c-0.8,0.2-1.3,0.6-1.7,1.2C55.9,288.8,55.8,289.6,56,290.4z"/>
	<path fill="#0055CC" d="M68.9,313.6l-0.6-1.6l-9.3,3.6l-2.3-6l32-12.3l2.3,6l-18.1,7l0.6,1.5l10.3,1.9l2.7,6.9l-12.8-3.2l-9,12.9
		l-2.6-6.9L68.9,313.6z"/>
	<path fill="#0055CC" d="M71.1,343.2c-1.6-3-2-5.9-1-8.8c0.9-2.9,2.9-5.1,5.9-6.7l0.8-0.4c3.1-1.7,6.1-2.2,9.1-1.6
		c2.9,0.6,5.2,2.4,6.7,5.2c1.5,2.8,1.9,5.5,1,7.9c-0.9,2.5-2.7,4.5-5.6,6.1l-3.1,1.7l-6.8-12.5l-0.1,0c-1.3,0.8-2.2,1.9-2.6,3.2
		s-0.3,2.6,0.5,4.1c0.7,1.2,1.4,2.2,2.1,2.9c0.7,0.7,1.6,1.4,2.7,2.1l-2.7,3.4c-1.2-0.5-2.3-1.3-3.6-2.4
		C73.1,346.3,72,344.9,71.1,343.2z M88.2,333.3c-0.6-1-1.4-1.6-2.5-1.8c-1.1-0.2-2.4,0-3.8,0.6l-0.1,0.1l3.8,6.9l0.5-0.3
		c1.2-0.7,2-1.5,2.4-2.4S88.8,334.4,88.2,333.3z"/>
	<path fill="#0055CC" d="M107.4,364.8l0.1,0.1l15.8-4.2l4.6,5.4l-22.9,5.1l-8.6,7.3l-4.1-4.9l8.8-7.5l8.6-21.4l4.6,5.4L107.4,364.8z
		"/>
	<path fill="#0055CC" d="M112.4,378.3c2.4-2.6,5.1-4.1,8-4.5c3-0.4,5.8,0.6,8.4,3c2.6,2.4,3.9,5,3.9,8.1c0,3-1.3,5.8-3.6,8.5
		l-0.3,0.3c-2.4,2.6-5.1,4.1-8.1,4.5c-3,0.3-5.8-0.7-8.4-3c-2.6-2.4-3.9-5-3.9-8c0-3,1.3-5.8,3.7-8.5L112.4,378.3z M116.8,383
		c-1.5,1.6-2.3,3.1-2.7,4.6s0.2,2.8,1.4,3.9c1.2,1.1,2.6,1.4,4,1c1.5-0.5,2.9-1.5,4.3-3.1l0.3-0.3c1.4-1.6,2.3-3.1,2.6-4.6
		c0.3-1.5-0.1-2.8-1.4-3.9c-1.2-1.1-2.6-1.4-4-1c-1.5,0.5-2.9,1.5-4.3,3L116.8,383z"/>
	<path fill="#0055CC" d="M140.1,411.8c-1.3,0.6-2.6,0.9-3.9,0.8s-2.6-0.5-3.8-1.3c-2.1-1.4-3.2-3.2-3.5-5.3s0.5-4.6,2.4-7.4
		l8.1-11.9l5.3,3.6l-8.1,11.9c-1,1.4-1.4,2.6-1.4,3.6c0.1,1,0.6,1.8,1.5,2.4c0.8,0.6,1.7,0.9,2.5,1.1c0.8,0.1,1.6,0.1,2.3-0.2
		l9.7-14.3l5.3,3.6L143.2,418l-4.5-3.1L140.1,411.8z"/>
	<path fill="#0055CC" d="M169,411l-2.1-1.1c-0.8-0.4-1.6-0.6-2.4-0.6s-1.4,0.3-2,0.8l-7.4,14.2l-5.7-3l11-21.1l5.3,2.8l-1.4,3.2
		c1.1-0.8,2.2-1.4,3.3-1.6c1.1-0.2,2.2,0,3.2,0.5c0.3,0.1,0.5,0.3,0.8,0.5c0.2,0.2,0.4,0.4,0.6,0.5L169,411z"/>
	<path fill="#0055CC" d="M177.6,434.6l9.2-30.6l10.5,3.2c3.7,1.1,6.5,3.3,8.2,6.4c1.7,3.1,2,6.6,0.9,10.3l-1.5,5.1
		c-1.1,3.8-3.3,6.5-6.4,8.1c-3.1,1.6-6.6,1.9-10.3,0.8L177.6,434.6z M191.6,410.6l-6.4,21.2l4.1,1.2c2.2,0.7,4.2,0.4,5.8-0.7
		c1.7-1.1,2.9-2.9,3.6-5.3l1.5-5.1c0.7-2.4,0.7-4.5-0.1-6.3c-0.8-1.9-2.3-3.1-4.5-3.8L191.6,410.6z"/>
	<path fill="#0055CC" d="M223.3,426.9l-2.3-0.5c-0.9-0.2-1.7-0.1-2.4,0.2c-0.7,0.3-1.2,0.8-1.7,1.4l-2.7,15.8l-6.3-1.1l3.9-23.4
		l5.9,1l-0.3,3.5c0.8-1.1,1.6-2,2.6-2.5c1-0.5,2.1-0.7,3.2-0.5c0.3,0.1,0.6,0.1,0.9,0.2s0.5,0.2,0.8,0.3L223.3,426.9z"/>
	<path fill="#0055CC" d="M236.1,446.7c-3.4-0.2-6.1-1.5-8-3.8s-2.8-5.2-2.6-8.5l0.1-0.9c0.2-3.5,1.3-6.4,3.4-8.5
		c2.1-2.2,4.7-3.2,8-3c3.2,0.2,5.6,1.3,7.3,3.3c1.7,2,2.4,4.7,2.2,8l-0.2,3.5L232,436l-0.1,0.1c0,1.6,0.5,2.9,1.3,3.9
		c0.9,1.1,2.1,1.6,3.7,1.7c1.4,0.1,2.6,0,3.6-0.2c1-0.2,2-0.6,3.1-1.2l1.5,4.1c-1,0.7-2.3,1.3-3.9,1.8
		C239.7,446.6,238,446.8,236.1,446.7z M236.6,427c-1.2-0.1-2.1,0.3-2.9,1.2c-0.7,0.9-1.2,2-1.5,3.5l0.1,0.1l7.9,0.5l0-0.6
		c0.1-1.4-0.2-2.5-0.8-3.3S237.9,427,236.6,427z"/>
	<path fill="#0055CC" d="M265.8,445.6c-0.3-0.5-0.5-1.1-0.7-1.7s-0.4-1.2-0.5-1.8c-0.6,1.2-1.4,2.2-2.4,3.1c-1,0.8-2.3,1.3-3.8,1.4
		c-2.5,0.2-4.4-0.3-5.9-1.5s-2.2-2.9-2.4-5.1c-0.2-2.3,0.6-4.2,2.3-5.6c1.7-1.4,4.3-2.2,7.7-2.5l3.6-0.3l-0.1-1.9
		c-0.1-1.1-0.4-2-1.1-2.6c-0.6-0.6-1.6-0.8-2.7-0.7c-1,0.1-1.8,0.4-2.3,0.9c-0.5,0.5-0.8,1.3-0.7,2.2l-6.2,0.4l0-0.1
		c-0.2-2,0.5-3.8,2.2-5.4c1.7-1.6,4.1-2.5,7.1-2.7c2.8-0.2,5.2,0.3,7.1,1.7c1.9,1.3,2.9,3.3,3.1,6l0.7,9.8c0.1,1.1,0.2,2.1,0.5,3.1
		c0.2,1,0.6,1.9,1,2.9L265.8,445.6z M259.6,441.8c1.1-0.1,2.1-0.4,2.9-1.1c0.8-0.6,1.4-1.3,1.6-2.1l-0.2-3.4l-3.6,0.3
		c-1.4,0.1-2.4,0.5-3,1.2s-0.9,1.6-0.9,2.5c0.1,0.8,0.4,1.4,0.9,1.8C258,441.7,258.7,441.9,259.6,441.8z"/>
	<path fill="#0055CC" d="M279.4,420.1l1,3c0.5-1.3,1.2-2.4,2.1-3.3c1-0.9,2.2-1.5,3.6-1.9c1.5-0.4,2.8-0.4,4,0s2.3,1.2,3.1,2.4
		c0.4-1.4,1.1-2.6,2-3.6c1-1,2.2-1.7,3.7-2.1c2.3-0.6,4.3-0.2,6,1c1.7,1.2,3,3.5,3.8,6.7l3.5,14l-6.2,1.6l-3.6-14
		c-0.4-1.8-1-2.9-1.8-3.4s-1.7-0.7-2.8-0.4c-0.9,0.2-1.6,0.6-2.1,1.2c-0.5,0.6-0.9,1.2-1.1,2c0.1,0.3,0.1,0.5,0.2,0.7
		c0.1,0.2,0.1,0.4,0.2,0.6l3.8,15.2l-6.2,1.6l-3.6-14c-0.4-1.7-1-2.8-1.8-3.4c-0.7-0.6-1.7-0.7-2.8-0.4c-0.8,0.2-1.5,0.6-2.1,1
		s-1,1.1-1.2,1.8l4.3,16.8l-6.2,1.6l-5.8-23L279.4,420.1z"/>
	<path fill="#0055CC" d="M348.3,406.5l0.1,0.1c1.7,3,2.1,5.9,1.2,8.7s-3.1,5.1-6.4,7c-3.4,1.8-6.7,2.3-10,1.2
		c-3.3-1-5.9-3.2-7.7-6.7l-3-5.6c-1.9-3.4-2.4-6.8-1.5-10.1c0.9-3.3,2.9-5.9,6.2-7.7c3.5-1.9,6.7-2.5,9.6-1.8s5.2,2.6,6.8,5.7l0,0.1
		l-5.5,3c-1-1.9-2.2-3-3.7-3.5c-1.4-0.5-3.1-0.2-5,0.8c-1.7,0.9-2.6,2.3-2.9,4.2c-0.2,1.9,0.2,3.9,1.4,6l3.1,5.6
		c1.2,2.1,2.7,3.6,4.4,4.4c1.8,0.8,3.6,0.7,5.3-0.3c1.8-1,2.8-2.1,3.1-3.5c0.3-1.4,0-3-1-4.9L348.3,406.5z"/>
	<path fill="#0055CC" d="M351.2,403c-2.1-2.8-3.1-5.7-2.9-8.7c0.2-3,1.7-5.6,4.5-7.7c2.8-2.1,5.7-2.9,8.6-2.3c3,0.6,5.5,2.3,7.7,5.1
		l0.3,0.4c2.2,2.8,3.1,5.8,2.9,8.8s-1.7,5.5-4.5,7.7c-2.8,2.1-5.7,2.9-8.6,2.3s-5.5-2.3-7.7-5.2L351.2,403z M356.5,399.5
		c1.3,1.7,2.7,2.9,4.1,3.5c1.4,0.6,2.8,0.4,4.1-0.7c1.3-1,1.9-2.3,1.7-3.8s-0.9-3.1-2.2-4.8l-0.3-0.4c-1.3-1.7-2.6-2.8-4-3.4
		c-1.4-0.6-2.8-0.4-4.1,0.6c-1.3,1-1.9,2.3-1.7,3.8s0.9,3.1,2.2,4.8L356.5,399.5z"/>
	<path fill="#0055CC" d="M368.8,374l2.5,1.9c-0.3-1.3-0.3-2.6,0-3.9c0.3-1.3,1-2.5,2-3.6c1-1.1,2.2-1.9,3.4-2.2s2.5-0.3,3.9,0.3
		c-0.4-1.4-0.5-2.8-0.3-4.1c0.3-1.3,0.9-2.6,2-3.8c1.6-1.7,3.4-2.5,5.5-2.4c2.1,0.1,4.4,1.3,6.8,3.5l10.6,9.7l-4.3,4.7l-10.6-9.8
		c-1.3-1.2-2.5-1.9-3.4-1.9c-0.9,0-1.8,0.4-2.5,1.2c-0.6,0.7-1,1.4-1.2,2.1c-0.2,0.8-0.1,1.5,0.2,2.3c0.2,0.2,0.4,0.3,0.5,0.5
		c0.2,0.1,0.3,0.3,0.5,0.4l11.5,10.6l-4.3,4.7l-10.6-9.8c-1.3-1.2-2.4-1.8-3.3-1.9c-0.9-0.1-1.8,0.3-2.6,1.2c-0.6,0.6-1,1.3-1.2,2
		c-0.2,0.7-0.2,1.4-0.1,2.1l12.8,11.8l-4.3,4.7l-17.5-16.1L368.8,374z"/>
	<path fill="#0055CC" d="M415.9,353.9c-1.9,2.9-4.3,4.6-7.2,5.1c-3,0.5-5.9-0.1-8.7-1.9l-0.7-0.5c-3-1.9-4.9-4.3-5.8-7.2
		c-0.9-2.9-0.4-5.7,1.4-8.4c1.7-2.7,3.9-4.3,6.5-4.7c2.6-0.4,5.3,0.2,8,2l2.9,1.9l-7.7,11.9l0.1,0.1c1.4,0.7,2.7,1,4.1,0.8
		c1.3-0.2,2.5-1,3.3-2.4c0.8-1.2,1.3-2.3,1.6-3.2c0.3-0.9,0.4-2,0.5-3.3l4.3,0.7c0.1,1.2,0,2.7-0.4,4.3
		C417.6,350.7,416.9,352.3,415.9,353.9z M399,343.7c-0.6,1-0.8,2-0.4,3.1c0.4,1.1,1.2,2.1,2.3,3l0.1,0l4.3-6.6l-0.5-0.3
		c-1.1-0.7-2.2-1.1-3.3-1S399.7,342.6,399,343.7z"/>
	<path fill="#0055CC" d="M412.2,297.9l-3.3,8.4l25.2,9.8l-2.3,6l-25.2-9.8l-3.3,8.4l-4.6-1.8l8.9-22.8L412.2,297.9z"/>
	<path fill="#0055CC" d="M423.8,287.5l-0.7,2.3c-0.3,0.9-0.3,1.7,0,2.4s0.6,1.3,1.2,1.8l15.5,4.2l-1.7,6.2l-22.9-6.2l1.6-5.7
		l3.5,0.6c-1.1-0.9-1.8-1.8-2.2-2.9c-0.4-1-0.5-2.1-0.2-3.2c0.1-0.3,0.2-0.6,0.3-0.8c0.1-0.2,0.3-0.5,0.4-0.7L423.8,287.5z"/>
	<path fill="#0055CC" d="M441.5,272c1.1,0.9,1.9,2,2.4,3.2c0.5,1.2,0.6,2.5,0.4,4c-0.4,2.5-1.5,4.3-3.3,5.5c-1.8,1.2-4.4,1.5-7.7,1
		l-14.2-2.1l1-6.3l14.3,2.2c1.7,0.3,3,0.2,3.8-0.3c0.8-0.5,1.3-1.3,1.5-2.4c0.2-1,0.1-1.9-0.1-2.7c-0.2-0.8-0.6-1.4-1.2-2l-17.1-2.6
		l1-6.3l23.5,3.6L445,272L441.5,272z"/>
	<path fill="#0055CC" d="M447,248.5c-0.1,3.4-1.2,6.1-3.4,8.2c-2.2,2-5,3-8.4,2.9l-0.9,0c-3.5-0.1-6.4-1.1-8.7-3.1
		c-2.3-2-3.3-4.6-3.3-7.9c0.1-3.2,1.1-5.7,3-7.4s4.6-2.6,7.9-2.5l3.5,0.1l-0.2,14.2l0.1,0c1.6-0.1,2.9-0.6,3.9-1.5
		c1-0.9,1.5-2.2,1.6-3.8c0-1.4-0.1-2.6-0.4-3.5c-0.3-0.9-0.7-2-1.3-3.1l4-1.7c0.8,1,1.4,2.3,1.9,3.8
		C446.8,244.9,447,246.6,447,248.5z M427.2,248.8c0,1.2,0.4,2.1,1.3,2.8c0.9,0.7,2.1,1.1,3.6,1.3l0.1-0.1l0.1-7.9l-0.6,0
		c-1.4,0-2.5,0.3-3.3,0.9C427.7,246.5,427.2,247.5,427.2,248.8z"/>
</g>
<circle fill="none" stroke="#0055CC" stroke-width="5" stroke-miterlimit="10" cx="246.7" cy="246.7" r="226.2"/>
<g>
	<path fill="#ED1C24" d="M210.5,198h-43.2l13.4,21.6v46.6c0,1.7-0.4,3.5-1.3,5c-1.9,3.2-6,7.7-14.8,7.7c-8.8,0-13.3-4.5-15.3-7.6
		c-1-1.6-1.6-3.4-1.6-5.3v-47.4l14.8-20.5h-53l14.2,21.6v44.3c0,8.5,3.2,16.8,8.7,23.3c4.6,5.4,11.6,10,21.4,10
		c23.1,0,35.4-5.8,38.1-20.3c2.7-14.4,1.3-55.5,1.3-55.5L210.5,198z"/>
	<path fill="#ED1C24" d="M277.8,196v36.8c0,0-15.2-22.6-32.5-22.5s-16.5,5.8-16.5,7.4c0,1.6,0.3,8.2,10.5,8.8
		c10.2,0.6,45.2,3.6,45.2,32.8s-9.4,38.8-27.2,38.8s-30-10.7-30-10.7l-12.7,9.7v-44.6c0,0,12.9,24.3,27.3,27.2
		c14.4,2.8,25.5,0.5,26.7-5.5c1.2-6-7.5-8.6-12.6-8.6c-13.8,0-23.8-4.2-30.8-8.7c-7.7-5.1-12.2-13.8-12.2-23l0-6.7
		c0-10.8,4.8-21.1,13.5-27.6c2.4-1.8,4.9-3.1,7.3-3.5c10.7-1.6,23.8-0.6,30.2,6.1C267.4,202.9,277.8,196,277.8,196z"/>
	<path fill="#ED1C24" d="M330,294h53.9l-16.6-23.3L349.1,217l11.3-17h-52.3l10.9,17.3l-18.6,54L286.2,294h39.3l-12-16.6l2.4-7.4
		h26.7l2.5,7.1L330,294z M320.9,254l7.7-25l8.5,25H320.9z"/>
</g>
<g>
	<polygon fill="#FFFFFF" points="246.7,104.5 257.3,130.6 285.4,132.7 263.9,150.8 270.6,178.2 246.7,163.3 222.7,178.2 
		229.5,150.8 208,132.7 236,130.6 	"/>
	<polygon fill="#FFFFFF" points="177.7,129.5 184.8,147.1 203.8,148.5 189.3,160.7 193.8,179.2 177.7,169.2 161.5,179.2 
		166.1,160.7 151.6,148.5 170.5,147.1 	"/>
	<polygon fill="#FFFFFF" points="315.7,129.5 322.8,147.1 341.8,148.5 327.3,160.7 331.8,179.2 315.7,169.2 299.5,179.2 
		304.1,160.7 289.6,148.5 308.5,147.1 	"/>
</g>
<g>
	<polygon fill="#FFFFFF" points="246.7,388.8 236,362.7 208,360.7 229.5,342.5 222.7,315.2 246.7,330 270.6,315.2 263.9,342.5 
		285.4,360.7 257.3,362.7 	"/>
	<polygon fill="#FFFFFF" points="315.7,363.8 308.5,346.2 289.6,344.8 304.1,332.6 299.5,314.2 315.7,324.2 331.8,314.2 
		327.3,332.6 341.8,344.8 322.8,346.2 	"/>
	<polygon fill="#FFFFFF" points="177.7,363.8 170.5,346.2 151.6,344.8 166.1,332.6 161.5,314.2 177.7,324.2 193.8,314.2 
		189.3,332.6 203.8,344.8 184.8,346.2 	"/>
</g>
</svg>
