<?xml version="1.0" encoding="utf-8"?>
<!-- Generator: Adobe Illustrator 18.1.1, SVG Export Plug-In . SVG Version: 6.00 Build 0)  -->
<svg version="1.1" id="Layer_1" xmlns="http://www.w3.org/2000/svg" xmlns:xlink="http://www.w3.org/1999/xlink" x="0px" y="0px"
	 viewBox="0 0 1920 351.7" enable-background="new 0 0 1920 351.7" xml:space="preserve">
<g opacity="0.7">
	<polygon fill="#231F20" points="1046.9,251.8 1046.9,243.9 1046.7,243.9 1046.8,251.6 	"/>
	<path fill="#231F20" d="M1415.1,267.5C1415.1,267.5,1415.1,267.5,1415.1,267.5C1415.1,267.5,1415.1,267.5,1415.1,267.5
		C1415.1,267.5,1415.1,267.5,1415.1,267.5z"/>
	<path fill="#231F20" d="M1390.5,272.7C1390.5,272.8,1390.5,272.8,1390.5,272.7c0,0.1,0,0.1,0,0.1
		C1390.5,272.8,1390.5,272.8,1390.5,272.7C1390.5,272.8,1390.5,272.7,1390.5,272.7z"/>
	<path fill="#231F20" d="M1542.6,351.7c189.5,0,329.8,0,334.7,0c14.2,0,28.5,0.2,42.7-0.2c0-9.9,0-19.7,0-29.6
		c-0.5-0.1-1.6,0.2-1.8-0.2c-0.5-2.6,0.2-4.3-0.2-6.3c-0.6-3-4-5.4-4.7-7.6c-0.5-1.6-0.3-3.7-0.6-5.5c-0.2-1.7-0.3-3.9-1.4-4.7
		c-1.3,3.9-0.4,7.9-1.6,11.8c-0.6,2-2.9,4-3.5,5.9c-0.6,1.8-0.5,4.4-0.8,6.5c-0.1,0.8-0.1,2.4-0.4,3.3c-0.3,1-0.4,2-2,1.8
		c-0.1-1.8-0.1-3.6-0.6-5.1c-1-0.5-2.6-0.4-4.1-0.4c-0.3,1-0.4,2.2-0.4,3.5c-1.3-0.6-1.9-1.9-3.3-2.4c-2.7,1.9-8.5,5.4-12.3,2.7
		c-1.7-1.1-1.4-3.6-2.9-5.1c-2.2-0.8-4.1,0.9-6.1,0.4c-0.1-1.3,0.2-3-0.2-3.9c-2.3-0.1-3.6-1.1-5.1-2c-0.8,0.3-1.2,1.1-1.6,2
		c-0.7-0.1-1.1,0.2-1.6,0.4c0,1.4-0.3,2.5-0.2,4.1c-0.6-0.7-2.3-0.3-3.5-0.4c-1.2-1-3.4-0.9-4.5-2c-0.9,0-1.2,0.5-1.8,0.8
		c0.3-1.4-0.8-1.5-1.8-1.2c-1.1,0.4-0.4,2.5-0.6,3.7c-5.2,0.2-10.4,0.4-15.9,0.4c0.1-0.9-0.1-1.6-0.4-2.2c-0.8,0.1-1.2-0.6-2.2-0.8
		c-1.7-0.3-4.2,0.1-5.3,0.4c-0.9,0.3-1.4,0.8-2,0.8c-0.1-1,0.2-2.3-0.2-2.9c-1.4-0.1-2.5-0.6-3.7-1c-1,0.7-2.6,1-3.3,2
		c-0.2,1.1-0.2,2.6-1.2,2.9c-0.5-2.1-3.1-2.3-4.5-1c-0.3-0.6-1.1-0.4-1.4,0c-0.7-0.7-1.6-0.7-2.3-0.6c-0.7,0.1-0.9,0.8-1.6,1
		c-0.8,0.3-1.3-0.2-2,0.2c-0.5,1.2,0.1,3.4-0.4,4.5c-1.1,0-2.4-0.1-3.1,0.2c-0.4,0.4,0,1.6-0.4,2c-0.7,0-1,0.3-1,1
		c-0.3,0.4-1.4,0.1-2,0.2c-0.8-2.4,0.6-7.7-2.2-7.4c-1.3,0.1-1.1,1.7-1.8,2.7c-1.3,0.4-3.1,0-4.9-0.2c-0.1-8.7,0.3-17.9-0.2-26.2
		c-0.9-0.4-2.5-0.1-3.7-0.2c-0.4-0.6,0-1.9-0.6-2.4c-3.1-1.2-6.5-0.4-9.2,0.8c-0.1,1,0.3,2.5-0.2,3.1c-3.6,0.7-7.9,0.9-11.4,1.8
		c-0.5,7.5,0.3,15.5,0,23.5c-3.8,0.2-7.7,0.2-11.8,0.2c0-0.6,0.1-1.3-0.2-1.6c-1.8,0-3.7,0-5.5,0c-0.1-1,0.2-2.3-0.4-2.7
		c-1.1-0.4-1.5,0.4-2.5-0.2c-0.8,0.4-1.4,0.9-2.5,1c-0.3,1-0.1,2.5-0.6,3.3c0.1-1.2-0.2-1.9-0.8-2.4c-1,0-1.1,0.9-1.4,1.6
		c-1.6-1.4-4,0.7-5.5,1.4c0,1,0,2.1,0,3.1c-0.3,0.4-1.3,0-1.6,0.4c0.1,1.8-1.8,1.6-2.2,2.9c-0.7-0.4-1.2-0.7-2.2-0.4
		c-0.7,0.2-0.1,1.7-0.6,2.2c-1.8-0.7-1.2,1.9-2.4,1.2c-0.7-0.2-0.4-1.1-0.4-1.6c-0.2-4.5,0.3-9.5-0.2-13.5c-3.3-0.4-7.2,0.4-11,0.2
		c-0.1-0.8,0.2-1.9-0.2-2.4c-1.2-0.1-1.9-0.6-2.9-0.8c-0.9,0.6-1.2,1.8-1.4,3.1c-3,0.5-7.2-0.2-10.2,0.4c-0.7,1.4-0.7,3.4-0.8,5.5
		c-1.6-0.1-1.8,1.2-2.4,2.2c-0.6-0.9-0.3-2.7-1-3.5c-1.7,0.1-3.4-0.5-4.9,0c-0.2,0.6-0.3,1.4-0.4,2.2c-1.9-0.2-2,1.4-2.7,2.4
		c0.6,1,1,4.1,0.2,5.3c-1.1,0.5-1.7-0.7-2.5-1c0.3-0.6,0.2-1.6,0.2-2.5c0-0.7-0.9-0.5-0.8-1.4c-0.1-2.2-0.1-4.5-0.4-6.5
		c-2.8-0.4-6.1,0.2-9.4,0c1-3.3-2.7-2.6-4.7-2.3c-0.8,0,0,1.6-0.8,1.6c-0.8,0-1.7,0-2.5,0c-0.7-0.1,0,1.2-0.8,1
		c-3.1,0-6.4-0.1-9.2,0.2c-0.3,0.6-0.1,1.7-0.2,2.7c0,0.9,0.4,2.4-0.6,2.3c-0.9-0.1,0-2-0.8-2.2c-1.8,0.1-3-0.3-4.7-0.2
		c0.1-1-0.1-1.7-0.2-2.5c-0.4-0.3-1.5,0-1.8-0.4c0-1,0.1-2.1-0.2-2.7c-0.9-0.4-3-0.3-3.9,0c-0.5,1.1,0.3,1.9,0.4,2.9
		c-1.7-0.5-1.7,1.1-2.7,0.6c-0.5-1.2-1.8-5.2-2.9-5.5c-0.8-0.2-1.9,0.1-2.4,1.2c-0.2-0.3-0.5-0.5-1.2-0.4c-0.2,1-1.8,0.6-2.2,1.4
		c-0.6,0.7,0.2,2.6-0.4,3.3c-1.5,0.2-3.1,0.3-4.7,0.4c-0.1-1.2-1.6-1-2.9-1c-0.4-0.4-0.1-1.5-1-1.4c-1.7,0.4-2.3-0.1-3.7-0.4
		c-0.5,0.5,0.1,2.1-0.4,2.5c0.1-5.4-0.2-10.2-0.2-15.5c48.8-13.6,98.5-26.7,148.9-39.6c24.5-6.3,49.7-12.9,75.2-19
		c21.6-5.2,44.4-11.1,66.2-16.3c3.2-0.8,7.3-1.3,9.6-2.5c0-30.8,0-61.5,0-92.3c-4.3,2.3-7.9,5.2-12.1,7.4
		c-1.4-9.3-2.6-18.8-3.7-28.4c3.6-3,7.9-5.9,11.6-8.6c1.3-1,2.3-2.3,3.9-2.5c0,5.4,0.1,10.8,0.4,15.9c0-7,0-14,0-21
		c-0.4,0-0.6,0.1-0.8,0.2c-4.8,3.4-9.5,7-14.3,10.6c-14.1,10.4-27.8,21.4-42.1,31.9c-9.4,7-19,13.9-28.6,20.8
		c-19.1,13.5-38.2,28-57.6,41.3c-9.8,6.7-19.8,13-29.6,19.8c-14.2,9.8-29.8,19.4-45.2,28.8c-3.8,2.3-7.6,4.7-11.6,7.1
		c-4.4,2.6-10.2,4-15.5,6.1c-11.1,4.3-22,8.4-33.5,12.9c-12.3,4.9-25.8,10.2-39,15.1c-2.1,0.8-4.4,2-5.7,2c-1.6,0-3.6-1.3-5.5-2
		c-5.2-1.9-10.8-3.8-16.1-5.7c1-0.6,0.4-1.5,0-2.4c-2-0.3-4.4-0.1-5.5,0.2c0-1.1,0-2.2,0-3.3c-0.6-0.7-2.2-0.3-2.9-0.8
		c-0.1-1.6,0.3-3.7-0.4-4.7c-2-0.5-4.4,0-6.5-0.4c-0.9-0.2-1.6-1.1-2.5-0.8c-1,0.5-1.3,1.8-1.6,3.1c-2.5,0.1-5.5-0.8-7.8-0.4
		c-1.3,0.3-2,1.4-3.1,1.4c-0.6,0.1-0.5,1-1,1.2c-0.4-0.1-0.8,0.2-1.1,0.4v23.6c0-0.5-0.1-1-0.1-1.4c-11.9-0.4-24.5,0-36.3-0.6
		c-0.3-3.7-0.3-7.7-0.6-11.4c-4.7-0.1-11.4-0.1-16.7-0.6c-0.2-4.1-1.2-7.3-1.1-11.7c-0.5-1.4-2.4-1.2-2.8-2.7c0-2.1,0.2-4.6-0.3-6.3
		c1-1.8,2.3-2.6,2-4.8c-0.3-2-2.6-2.4-3.4-3.9c-0.1-1.8-0.9-2.9-1.7-3.9c0-1.8-1.1-2.4-1.7-3.6c-0.6-3.9-0.5-8.4-1.1-12.3
		c0.1-1,1.1-1.1,1.1-2.1c-0.3-0.6-1.5-0.2-1.1-1.5c-0.3-4.9-0.5-11.9-0.8-17.7c-0.1-2-0.5-4.6-0.3-5.7c0.5-2.2,2.9-2.8,4.5-3.6
		c0.6-2.9,1.9-6.5,0.9-10.2c-2.2-0.6-2.2,1-3.7,1.2c-1.6-0.7-3.4,0.3-5.1-0.6c0.5-3-1.1-3.9-1.7-5.7c0.3-2.7,0.5-5.5,1.7-7.2
		c-2-0.6-3.1-2.3-2.6-5.7c-1-0.8-3.3-0.8-4-2.4c-0.4-1-0.2-4.1-0.3-7.2c-0.2-6-0.5-15.6-0.8-21c-0.1-2.2,2.2-4.8,0.8-7.5
		c0.3-0.9,1.7-0.8,1.7-2.1c-0.6-5.4-0.9-13.2-1.7-18.9c-0.7-4.7-1.7-9,2.5-10.5c1.5-6.2,7.3-8,9.9-13.2c-1.8-2.8,0.6-4.4,1.1-7.2
		c-3.9-2-7.3-4.4-11.3-6.3c-0.3,1.2-1.7,1.4-2.3,2.4c-0.8,0.8-0.9,2.3-2,2.7c-1.4-0.1-1.9-1.2-2.8-1.8c-1.4-4.6-1.4-8.2-3.4-12
		c-1.2-2.2-3.6-3.4-4.5-5.7c-0.6-1.5-1.2-4-1.1-5.4c0.1-0.9,0.8-1.5,0.8-2.7c0-1.3-0.7-2.6-0.8-4.2c-0.3-1.4,1.7-0.4,1.4-1.8
		c0.3-1.4-1-2.1-0.3-3c2-0.3,5.2,0.7,6.2-0.6c-1.9-0.8-5.1-0.2-5.9-2.1c0.7-2.3,4.5-1.4,5.7-3.3c-2.1-0.1-5.2,1.7-6.2,0
		c0.3-2,2.9-3.3,4.2-4.8c0.2-0.2,1.7-1,0.6-1.2c-2.8,1.1-5,4.7-8.5,3.3c-0.6-2.2,0.6-4.9,0.6-7.5c-2.4,2.2-1.7,7.8-5.1,7.8
		c-1.6,0-2.4-2.2-3.7-3.3c0,0-0.8-1.6-0.9-0.3c0.8,1.3,1.6,2.5,2,4.2c-1.4,1.7-5.1,1.9-7.1,0.6c-0.2-6.5-2.3-13.1-1.1-20.4
		c0.3-2.2,1.3-3.9,1.1-6c-0.2-2.5-2.6-4.2-1.4-6.6c0.3-1.8,3.4-0.6,3.4-2.7c0.3-1,0-3.6,0-4.5c-0.6-1.2-3.3-0.3-3.7-1.8
		c-0.1-2.2,1.9-1.9,1.7-4.2c-0.7-1-1.2-2.1-1.4-3.6c-0.9,0-1.6-0.7-2.3,0c-1.5,0.2,0.5-1.6-0.9-1.2c-2,0.7-2.6,2.3-2.5,4.8
		c0,1.7,1,3.3,0.6,4.5c-1,0.6-3,0.2-3.7,1.2c0.2,2,0.1,2.4,0,4.5c0,1.3,1.5,1,1.7,2.1c0.8,3.3,0.4,6.8,0.9,10.2
		c0.2,1.3,1,2.5,1.1,3.9c0.4,3.6-1.1,8-1.1,12.3c0,3.7,1.1,7.6,0.6,10.5c-0.3,1.7-1.8,2.8-2.5,4.5c-1.9,4.4-2.2,10.2,0,14.1
		c-0.3,1.1-0.9,1.9-0.8,3.3c0.7,1.9,2.7,2.5,3.4,4.5c-0.4,2.3-2.1,4.6-2,6.9c0.1,2.3,2.1,3.1,2.8,5.1c0.5,1.2,1.2,4.1,0.9,6
		c-0.3,2-3,4.6-3.4,7.5c-0.2,1.4-0.1,3,0.3,5.1c0.9,0.8,3.4-0.2,4.2,0.6c1.4,5-3.6,8.5-3.1,11.7c0.2,1.8,1.1,1.2,2,2.7
		c-1.6,5.1-0.4,10.7,0.3,15.6c0.4,2.8-2.2,5.4-1.7,8.1c-5,7.3-2.7,17.9-5.9,26.1c-0.4,1-1.4,2.2-2,3.3c-0.6,1.1-1.6,2.2-2,3.3
		c-0.4,1.1-0.1,2.5-0.6,3.6c-0.5,1.2-1.5,1.6-2,2.7c0,1.3,0,2.6,0,3.9c-0.5,1.3-2.5,1.2-2.8,2.7c2.4,2.4,1.8,8.6-0.9,10.5
		c-2.3,0.6-4,1.8-6.2,2.4c-0.4,3-1.6,7.1,0,9.6c1.1,1.2,3.4,1.2,4,3c0.1,13.8-2,25.2-1.7,39.2c-1.2,2.2-2.8,4.1-3.4,6.9
		c-2.4,0.9-2.3,4.3-3.1,6.9c0.3,0.9,0.9,1.4,1.1,2.7c0.6,3.2-0.3,7.2-2,8.4c0,3.6-0.4,6.7-0.9,9.9c-5.5,1-11.2,1.7-16.4,3
		c0.2,3-0.3,5.3-0.3,8.1c-10.5,2-22,2.9-32.3,5.1c0,4.3-0.1,8.4-0.6,12.3c-3,0.1-6.1,0.2-9.1,0.3v-26.6h-11.4v-2h-1v-4.9h-1.5v5
		h-0.9v1.6h-29.8v-1.9l-1,0.1v1.8h-6.6v10.1h-1.8v13h-7.9v3.4h-2v-21.4h-1.9v-2.1l-4.4-5.8h-8.5v2.1h-1l-0.3,5.2h-1.4l0.3,3
		l-2.4-0.1l-0.1,3.2l-0.8,0.4v9h-1v3.8h-1.9l-0.5-29.9l-3.9-1l-0.5-4l-2.8-0.1l-0.1-1.6h-1.5v1h-1.5v-1h-1l-0.8,0.8h-1.3l-0.5-1
		h-0.6l-0.4,1h-1.3l-0.4-1h-1.3l-0.3,1h-5.8l-0.3-1.3h-1.8l-0.5,1.1h-7.4l-0.9-0.8h-1.5l-0.4,0.9h-1.8l0,16h-0.1v-3.6l-7.5-0.6v0.5
		l-0.5,0v-0.5l-0.6-0.1l0-2l-1.6-0.1l0,2.1l-1.1,0l0-3.3h-0.4l0,0.6l-0.6,0.1v-1.1h-0.5l0-0.5l-0.5-4.3l0.1,4.8l-1.7,0v-0.4l-0.6,0
		v0.4h-1.6l0-0.5l-0.4,0l0,0.4l-0.5,0l0,1.1l-1.1,0.5l0.1,1.6h-1.2v-1.6h-0.9v1.1h-1.6v1.1h-0.5v-0.6h-1.6l-2.7,0.6h-1.6v4.2h-2.6
		v-3.3h-0.7v1.6h-1.1v-1.5l-0.5-0.6l-0.4,0l0,0.5l-0.6,1.1h-0.5v-0.7h-0.4v-2l-1.1-0.7l0-0.4l-0.6-0.5v-1.6h-0.4v0.4l-0.5,0.7v0.5
		l-0.6,0l-0.9-1l-0.8,1.4l-0.5,0l0-1.4l-0.4-0.2l0-0.4h-0.4l-0.1,2.1l-0.5,0l-1.5,1.5l-0.5,0l-0.1,2.7l-2.1,0l0,3.6h-1.6v-4.1
		l-1.5,0.5l-0.1,0.5h-0.7v-0.6l-0.9,0.1l-0.1-1.1l-3.7,0l-0.1-0.9l-1.6-1.2h-3.8l0-2.7l-1,0l-0.4,2.5l-2.3,0l0.4-18.3h-1.1l-0.4-1.4
		l-0.6-0.1l-0.5,1.6l-0.5,0l0.8-36.7l-13.2-1.3l-17.5,4.4l-2.1,51.2h-3.1v-46.3l-0.4-0.4v-6.7h-1.4v-0.8h-1v-1.9h-0.5v-0.9h-1.9
		v-2.8l-13.5-11l-14.1,7.8v3.2h-1.4v3.7h-1.3v6.4h-1.8v10.8h-8.2v2.4h-2.2v2.4h-2.1v3.7h-1.9v3.8h-2.3v4.9h-3.3v2.3h-2.4v3.1h-0.7v0
		h-0.2v1.4h-2.1v-23.5h-1.6V255h-25.7v6.1h-1.8v-53.7h-1.2v-10h-2.7v-5.1h-1.4v-1.2h-2.4v-0.8h-0.6c0-0.8-6.3-12.9-18.8-12.9
		c-12.5,0-17.6,12.5-17.6,12.5h-1v2h-1.4v4.3h-3.9l-0.4,66.1h-4.3v11.6h-4.1v29.2h-4.3v-18.4h-6.8v-30l-0.7,0.1l-2.4-143.7
		l-11.4-4.7h-1.6v-0.5h-1.2l-0.3-4.2l-0.4,4.8l-26,6.6l0,102.2l-1.6,0.6h-4.5v0.7H900l-1.5,1.8h-2.3l-1.4,1.4v2l-7.9,0.5l-1.2,42.2
		l-1.3,0.1v-21.8c-0.1,3.2-0.2,6.5-0.2,9.9c0,1.7,0.9,4.6-1.3,5.3c0.5-17.8-2-32.1-3.8-48.3c-1-9.5-2.2-19.5-3.3-29.2
		c-0.2-1.5,0.1-3.2-0.3-4.3c-0.8-2.7-4.7-4.6-5.3-7.6c-0.5-2.2,0-5.1,0-7.6c0-7.4-0.2-14.7-0.3-21.7c-1.8,0.3-2.9,1.3-4.8,1.5
		c0.2-8.9-0.3-17.2-0.3-25.9c-0.9-2.3-0.4-7.8-0.5-11.6c0-0.9,0.4-2.4-0.5-2.8c0.1,5.7,0,11.7-0.3,17.6c-0.3,6.1,0.9,12.4,0,17.9
		c-0.3,1.9-1.9,3.9-1.3,6c-2.8,0.7-5.2,1.6-7.8,2.5c-2.1,7.8-3.8,16.6-5.8,25.2c-0.6,2.7-1.6,5.4-2,8.1c-0.8,5.7-0.8,11.7-1.3,17.6
		c-1.1,13-2.6,38.3-3.6,47.9v6h-1.1l-3,0.3l-0.3-47.1l-25.4-3.8l-11.3,3.3l0.1,21.3l-0.8,0.2l-3.8,0.4l-0.2,0.6l-2-0.1l-0.2-1.2
		L793,223l-0.2-4.3l-0.4-0.1l-0.2-3.9l-0.7-0.7l-0.7-0.2V211l-0.8-0.7l-0.7-0.2l-1.8-0.5v-8.3l-0.4-0.1l-0.2-2.5l-2.4-0.1l-0.2,2.2
		l-3.4-0.4l-2.1,0.1l-4,1.4v6.2l-2.1,0.8l-1.9,0.1v0.5l-1.4,0.2v2.9h-0.5v0.6H767v4.6l-0.4,0.6L766,218l-1-0.1l-0.3,0.5l-1.2,0.4
		c0.1-17.2,0.5-35.6-0.3-52.5c-0.2-4.2,0.5-8.6,0-12.6c-0.1-0.7-0.6-1.4-0.8-2.3c-0.3-2,0.2-4.1,0-6c-0.3-1.2,1-0.8,1-1.8
		c-1.4-1-1.7-2.8-2.5-4.3c-0.8-1.5-2-3-2.3-4.5c-0.1-0.9,0.3-2,0.3-2.8c0-5.4,0.2-11-1.3-16.1c-0.4-1.2-1.2-2.3-1.5-3.5
		c-0.6-2.2-0.5-4.7-1-7c-0.9-4.3-2.1-8.5-3.3-12.8c-0.6-2.1-1.4-4-2-6c-0.3-1-0.2-2.1-0.5-3.3c-0.2-0.8-0.8-1.7-1-2.5
		c-0.3-1.3,0-2.8-0.3-4.3c-0.2-1.4-0.9-2.7-1-4c-0.2-1.6,0.2-3.2,0-4.8c-0.1-1.1-0.6-2.2-0.8-3.3c-0.5-5.5-0.2-11.3-0.5-17.4
		c-0.2-3.2,0.5-6.8-0.5-10.1c-0.9,7.1-0.4,14.7-0.8,21.9c-0.2,5.5-0.5,11.1-1.5,16.6c-0.3,1.9-0.4,3.7-0.8,5.3c-0.6,2.3-2.6,4-2,6.5
		c-1.6,1.9-3,3.9-2.8,7.6c-1.7,1.9-2.4,4.8-2.3,8.6c-1.6,2.1-0.9,4.7-1.3,7c-0.2,1-0.9,1.8-1,2.8c-0.2,1.5,0.2,3,0,4.5
		c-0.1,0.9-0.8,1.8-1,2.8c-0.8,4.4,0.1,9.3-0.3,14.4c-0.7-0.4-1.7-0.7-2.5-0.3c0.1,1.4,2.4,1.8,1.8,3c-1.8,1-4,0.1-5.8,0.3
		c-0.2,1.5,1.8,1.7,2.3,3.5c0.3,1.3-0.2,2.5,0,4.3c-0.4,0.6-1.6,0.2-1.5,1.3c-0.2,21.9,0.3,46.6-0.3,69c-1.9,0.2-3.1-0.4-5-0.3
		c-0.7,0.3-0.2,1.8-0.8,2.3c-1.5,0-3,0-4.5,0c0.1,2.9-0.4,3.9-0.3,7c-0.8,0.5-1.1,1.1-1.3,2c0,0.1-0.1,0.3-0.1,0.5v5.8
		c0,0.8,0.1,1.7,0.1,2.5c0,1.8,0,3.7-0.1,5.5v13.3c-0.3-19.7-0.6-39.4-0.8-59.5c-0.2-0.5-1.2-0.2-1.2-1c0-6,0-12,0-18
		c-1-0.6-2.6-0.5-3.7-1c-0.2-2.3,0.2-4.1-0.2-5.9c-0.3-1.2-1.5-2.4-1-4.5c-0.8-0.5-1.8-0.9-2.5-1.6c-0.2-0.7,0.4-0.9,0-1.4
		c-1.1-0.8-2.5-2-2.9-3.7c-1-3.8,0.1-9.8-0.8-14.1c-0.3-1.3-1.2-2.3-0.6-3.5c-0.3-0.7-1.1-0.9-1.4-1.8c0-5.2-1-11.3-0.2-16.1
		c-1.4-2.2-0.8-6.4-1.2-9.6c-0.6,2.6-0.2,6.2-0.6,9c-0.3,0.2-0.4,0.7-0.6,1c0.8,2.1,0.3,4.8,0.2,7.6c-0.1,2.7,0.6,5.8,0,7.8
		c-0.2,0.9-1.3,1.3-1.6,2c0.6,1.3-0.4,2.2-0.6,3.5c-0.7,4.1,0.5,8.9,0,14.1c0,0.8-1,0.6-0.8,1.6c-0.2,4-1.6,7.2-2.7,10.6
		c-0.5,1.3-0.9,2.7-1.4,4.1c-0.4,1.3-1.2,2.6-1.4,3.9c-0.3,2.1,0.3,4.7-0.2,7.2c-0.2,0.5-1.4-0.1-1.2,0.8c-0.5,1.4-1.3,2.9-1.6,4.5
		c-0.6,4.5,0.6,10.1-0.2,14.7c-0.2,1.1-1.2,2.2-1.4,3.3c-0.3,2-0.3,4.1-0.2,6.3l-1.8,0.1l-0.1-4.2h1v-0.8h0.8v-1h-1.7v-0.8h-2.4
		v-16.7h-0.8v-4.9h-0.9V182h-0.8v-1.8h-0.8v-2.7h-0.8v-2.4h-1v-0.9H673V171h-0.8v-2.6h-0.8v-4.2h-0.9v-5.9h-0.8l-0.3-21.3l-0.6,21.2
		h-0.8v5.9h-0.8v4.2h-1v2.6h-0.6v3.1h-1v1.8h-0.7v3.4h-0.8v2.5h-0.9v5h-0.8v5h-0.8v17.4h-2.4v-0.9h-0.9v-1.7h0.8v-1.5h-0.9v-1.8h0.8
		v-1.6h-0.8v-2.5h0.9v-1.8h-2.6v-1.8h1.7v-1.6h-2.5v-1.6h0.9V191H653v-1.4h1.6v-1.9H652v-0.9h1.7v-2.4h-2.5v-0.8h0.8V181h-2.4v-1
		h1.7v-2.2h-1.6v0.4h-0.9v-1.7h1.5v-1.2h-0.6v-1.1H649v0.8h-1.1v-1l1.1,0.2V172h-2.7V171l-6.8-18.5l-14.9-2.5l-6.2,22.6h-0.5v0.7
		H616v1.9h1.1v1.7h-2.1v2.4h1.1v0.8h-1.7v2.5h0.8v1.6h-2.5v1.7h1.6v1.7H612v2.6h1.1v0.9h-1.8v2.4h0.9v1.6h-2v1.7h0.9v1.7H609v1.9
		h1.3v1.9h-2.4v1.7h0.7v0.8h0.8v1.5h-0.9v2.5h1v0.7h-0.8v1.7h0.9v1.7h-1v1.7h0.8v1.6h-0.9v1.8h1v1h-1v1.4H607v3.4h-1.6v-3.9h-3.6
		v8.4l-5.3-0.2v-0.6h-2.2v0.6h-0.9l-0.9-0.6h-2v1.4h-4l-2.3,0.6v0.6L583,231h-3.8l0.3-34.2h0.4l0.1-1.4l-0.6,0.1v-14.7l0.6-0.2
		l0.1-1l-2.6-0.2l-0.2-1.2l-3.4-0.1l-2-0.6l-0.3-1.3l-1.8-0.1l-0.4-2.1l-0.4,1.4l-1.8,0.1l-0.2-3.1l-0.5-0.1l-0.2-4.5L566,168
		l-0.2-2.7l-0.6-0.2l-0.1-1h-0.5l-0.2,0.7l-0.4,0.6l-0.2,2l-0.2,0.6h-0.6v-8.3l-0.6-0.2l-0.1-0.6l-0.6-0.5l-0.1-1l-0.5-0.2l-0.2-2
		l-0.5-0.1l-0.6-0.9l-0.2-2.9l-1.5-2l-0.8-0.1l-0.2-3.6h-0.6v0.6h-0.5l-0.2,3l-0.7,0.2l-1.3,1.4l-0.2,1.2l-0.3,0.1l-0.1,1.5
		l-0.6,0.5l-0.1,1l-0.6,0.3v1.4l-0.6,0.4v1l-1.1,0.3l-0.2,1.7l-0.6,0.5l-0.2,7.2h-0.5l-0.2-3h-0.6l-0.2-1.3l-0.3,0.1l-0.2,1
		l-0.5,0.1l-0.2,2.5l-0.6,0.2v4.5l-0.6-0.1l-0.2,1.3l-0.6,0.6l-2.4,0.2l-0.9,1.1l-1.8,0.2v0.6h-1.8v0.7l-1.8,1.1l-0.9,0.6l0.1,4.5
		l-0.7,0.8l0.1,1.2l-0.6,0.6l-0.1,3.3l-0.6,0.7l-0.1,6.2l-0.6,0.8l-0.6,25.9l-1.8,0.2l-0.1,0.6l-1,0.1l-0.1,2.1v58.3l-1.8-0.5h-0.5
		v-2.9h-1.4l-0.5-1h-0.5l-0.5,0.6v0.4l-3.3,0.5v2h-1.1v-1.6h-3l-1.3-26.3l-4.9-0.9h-2.2l-13.1,1.9h-1.8v-0.4h-0.8v-0.5h-0.6v1h-1
		v-0.4h-0.5v0.4l-8.8,1.2l0.9,27.2l-0.6,0l-1-25.8l-5-1l-0.5-13.3l-6.5-1.1v-1.4l-0.9-1l-4-0.1l0-1.9l-3.2-0.5h-3.6l-5.1,1v-0.5
		h-0.5v0.9l-11.4,2.1v2.9h-3v0.5h-1v0.5h-0.6v1.4h-0.5v-0.4h-0.9v0.5h-0.6v0.6h-2.5l-0.8,0.3v-0.8c-4.8-0.6-9.6-1.2-14.4-1.8
		c-1,0.3-1,3.1-1.9,2.7c-0.4-35.3-1-70.5-1.9-105.3c-0.6,0.8-0.1,2.6-1.1,2.9c-0.1-0.8,0.3-2.1-0.6-2.1c-0.3,2.1-0.4,4.4-0.8,6.4
		c-0.1-1.3,0.3-3.1-0.3-4c-1.4,0.5-0.8,2.9-1.6,4c-0.4-3.1-0.2-8.8-0.5-12.8c-5.1-0.6-10-1.5-15.4-1.9c0.1-1-1-1.9-1.1-2.7
		c-0.4-2.1,0.1-4.5,0-6.7c-0.4-9.1-0.5-19.4-0.8-28.3c0-1.6,0-3.2,0-4.8c-0.6-0.2-0.1,2.9-0.3,4c0,9.3,0,19.5,0,29.1
		c0,3.1,0.5,6.2-0.8,8.8c-3.4-0.4-7-0.7-10.2-1.3c0,3.6,0,8.9,0,13.6c0,1.4,0.5,3.2-0.6,4c-1.4-2.3,0.6-7.8-2.2-8.8
		c-0.2,6.8-0.3,13.8-0.8,20.3c-0.4-0.4-1.4-0.2-2.2-0.3c-1.2-7.7-0.9-16.9-2.2-24.5c-1.8,51.3,0.7,104.2,0.5,156.5
		c-1.3-0.3-0.9,0.9-1.6,1.3v-12.1c-0.3,0.5-0.6,1-0.9,1.5c-0.6,1.2-1.1,2.4-1.6,3.5c0-0.3,0-0.6,0-0.9c-0.4,0-0.7,0-1.1,0
		c0-4.1,0-8.2,0-12.3c-2-1.2-6.3,0-8.6-0.8c0-1.5,0-3.1,0-4.6c-5-1-11.7-0.3-17-1.1c-0.2-13.2,0.4-27.1-0.3-39.9
		c-1.5-0.7-2.7-0.1-4.3,0c-4.1,0.2-9.3-0.5-12.7,0.3c-2.1,0.5-4.7,3.5-6.5,4.8c-2.2,1.6-5.4,3-6.2,5.1c-1,2.7-0.3,6.8-0.3,10.5
		c0,3.5,0.2,7.1-0.3,10.5c-8.6,0.5-18.5-0.3-26.4,0.5c-0.8,0.1-1.6,0.7-2.4,0.8c-0.6,0.1-1-0.6-1.6-0.5c-0.8,0.1-1,1.5-1.9,0.8
		c-1.2,0.2-1.5-0.4-2.4-0.5c-2.9,1.9-8.9,0.6-12.7,1.6c-1,0.4,0,2.9-1.1,3.2c-1.5,0.1-3.2-0.2-4.3,0.3c-0.6,2-0.1,4.9-0.3,7.3
		c-2.3,0.6-4-0.3-6.5-0.3c-1.3,1.3-1.2,3-1.9,4.6c-4.8-0.3-9.6-0.4-12.9,1.3c-0.7,0.9,0.2,3.4-0.5,4.3c-4.4-0.1-10.5-1.1-14,0.3
		c-0.8,0.2-0.4,1.6-1.3,1.6c-4.6,0-9.2-0.1-13.2,0.5c-0.4,2.6-0.4,5.7-0.5,8.6c-1.1,1.1-2.5,1.3-3,3.2c-0.5,2.1,0.5,5.6,0,7.8
		c-0.2,1-1,1.2-1.1,2.2c0.2,2.6,0.9,6.1,0.3,8.6c-0.9,0.1-1.5-0.2-1.8-0.7l-1.1-57.2l-15.1-3.8l-11.4,1.2l0.7,31.7l-0.5,0l-0.5-1.3
		l-0.5,0.1l-0.3,1.2h-1l0.3,15.8l-2,0l-0.3-2.2l-0.9,0l0,2.3h-3.3l-1.3,1.1l-0.1,0.8l-3.2,0l-0.1,1l-0.8-0.1v0.5h-0.6l-0.1-0.4
		l-1.3-0.4v3.6h-1.4l0-3.1l-1.8,0l-0.1-2.3l-0.5,0l-1.3-1.3l-0.5,0l-0.1-1.8h-0.4l0,0.4l-0.4,0.2l0,1.2l-0.5,0l-0.7-1.2l-0.8,0.8
		l-0.5,0V301l-0.4-0.6V300h-0.3v1.4l-0.5,0.5l0,0.4l-0.9,0.6v1.7h-0.3v0.6h-0.5l-0.5-0.9l0-0.5l-0.4,0l-0.4,0.5v1.3h-1v-1.3H143v2.8
		h-2.3v-3.7h-1.4l-2.3-0.5h-1.4v0.5h-0.5v-1h-1.4v-0.9H133v1.4h-1l0.1-1.4l-0.9-0.5l0-1l-0.4,0l0-0.4l-0.3,0l0,0.4h-1.3v-0.3l-0.5,0
		v0.4l-1.5,0l0.1-4.1l-0.4,3.7l0,0.5h-0.4v0.9l-0.5-0.1l0-0.5h-0.3l0,2.9l-1,0l0-1.8l-1.4,0.1l0,1.7l-0.5,0.1v0.5l-0.4,0v-0.5
		l-6.5,0.5v3.1h-0.3v5.7l0.3,0.4l0,2.4l-0.3,0v7.6c0,0-0.1,0-0.2,0c-0.6,0.3,0.3,2.2-0.6,2.2c-1.4,0-1-0.8-1.2-1.8
		c-0.4-2.4,0.3-6.1,0-8.4c-0.9-0.3-2.1-0.2-2.9-0.6c-1.3-3,0.4-8-0.4-11c-0.3-0.9-1.6-2.3-2.5-2.5c-1.5-0.4-4.7,0.2-6.5,0.4
		c-2.1,0.2-4,0.3-6.1,0.6c-0.4,1.4-0.1,3.6-0.2,5.3c-1.3,0-0.3,2.4-2.2,2c-0.5-2.6-0.1-6.1-0.2-9c-1.1-0.4-0.9-2.1-1.8-2.7
		c-1.1-0.3-3.1-0.4-4.1-0.2c-0.2,1.4-0.5,2.6-0.6,3.9c-0.1,1.4,0.5,3.1,0.2,4.3c-0.2,0.8-1.2,1-1.6,1.8c-0.1,0.3,0.1,1,0,1.6
		c-0.1,0.4-0.4,0.7-0.4,1c-0.2,1.7,0.1,3.5,0,5.5c-1.3,0.3-2.7-0.1-3.7,0.2c-1.1,0.4-1.2,1.4-2.2,1.8c-0.2-0.7-1.5-0.5-1.8-1.2
		c0-3.7,0-7.3,0-11c0.2-0.9-1.1-0.4-1-1.2c0.4-3.1,0.2-5.7,0.2-9.2c-0.7-0.8-1.5-1.1-2-2.2c-0.2-0.5-0.4-2.5-0.6-3.1
		c-0.2-0.9-0.2-2.1-1.2-2.4c-1,0.4-0.7,2.2-1.2,3.1c-0.1-1.5,0.4-3.7-0.6-4.3c-1.4-0.5-0.6,1.4-1.6,1.4c-1.5,0-3.1-0.1-4.3,0.2
		c0.2-1.7-1.3-1.7-2.5-2c-0.3-3.8,0-8.7,0-13.1c0-1.3,0.5-2.9-0.6-3.7c-1,0.2-0.5,1.5-0.6,2.2c-0.5,4.9-0.7,11.4-1.4,16.5
		c-0.4-0.3-1.9-0.1-2.4,0.6c-0.4,1.6-0.3,4.1,0.4,5.3c-0.2,1-2.1,0.4-2.2,1.6c0.8,0.9,0,1.8,1.2,2.7c-0.1,1.5,0.3,3.5-0.2,4.7
		c0.4-1.6-0.6-1.8-1.6-2c-0.4-0.6,0.3-2.4-1.2-2c-1,0.7-0.6,2.8-0.6,4.5c0,4.6,0,10,0,14.7c-0.2,0.6-1.5,0.2-1.6,1
		c-0.2,0.9,0.3,1.8,0,2.7c-0.1,0.5-0.5,0.7-0.6,1.2c-0.1,0.7,0,1.8,0,2.5c0,0.5,0.4,1.8-0.6,1.8c-1.6,0.3-0.4-1.4-1-2.4
		c-1,0-1-0.9-1.6-1.4c-1.5-0.3-1.6,0.7-2.9,0.6c-0.4-1.5,0.1-4-0.6-5.3c-2.1-0.4-4.4,0.1-6.5-0.2c-1-0.1-1.9-1-2.9-0.6
		c0.2-1-0.5-1.1-0.8-1.6c-1.2,0-2.5,0-3.7,0c-0.4,1-0.8,1.8-1.6,2.3c-2.9,0.2-5.9-0.4-8.2,0c-1.1,1.1-1.3,3-2.2,4.3
		c-0.9,0.4-2.6,0-3.5,0.4c-0.3,0.6-0.2,1.6-0.2,2.5c-1.7,1.5-0.9,5.5-1.4,8.2c-4.3,0-8.6,0-12.9,0v18.1 M1776.2,233.6
		c-4,1.5-8,3-12.1,4.3c0.6-0.9,1.8-1.4,2.7-2c2.8-1.6,5.9-3.3,9-5.1c0.1,0,0.3,0,0.4,0C1776.2,231.8,1776.2,232.7,1776.2,233.6z
		 M1776.4,230.9c5.1-3.5,10.6-6.7,16.3-9.8c0.4,1,0.1,2.6,0.2,3.9c-5.6,2.6-9.6,6.7-16.1,8.4
		C1776.6,232.7,1776.4,231.8,1776.4,230.9z M1793.3,227.5c-1.4,0.4-3.1,1.6-4.5,1.4c0.9-1.4,2.6-2,4.3-2.5
		C1792.9,227,1793.4,226.9,1793.3,227.5z M1793.3,220.7c5.9-3.6,11.8-7.3,17.8-10.8c0.8,0.6,0.5,2.6,0.6,3.7
		c-6,3.6-11.8,7.4-18,10.8C1793.4,223.3,1793.4,221.9,1793.3,220.7z M1793.7,227.3c-0.1-2.1,2.4-2.7,3.7-3.5
		c4.4-2.6,9.3-5.8,13.7-8.4c0.1,0,0.1,0,0.2,0c1,1,0.4,3.6,0.8,5.3C1806.1,223,1800,225.3,1793.7,227.3z M1831.7,201.3
		c-6.4,3.8-12.4,8.1-19.2,11.6c-0.2-1-0.2-2.1-0.4-3.1c6.3-4.2,12.9-8,19.2-12.1C1832.1,198.1,1831.5,200.1,1831.7,201.3z
		 M1812.7,220.3c-0.5-1.4,0.1-4-0.4-5.5c6.2-4.1,12.9-7.7,19.4-11.6c0.1,0,0.3,0,0.4,0c0.3,3.4,0.4,7,0.8,10.4
		C1826.3,216,1819.5,218.1,1812.7,220.3z M1842.6,210.7c-2.6,0.9-5.2,1.7-9.2,1.4c-0.3-2.4-0.4-4.4-0.6-6.9
		c-0.1-0.7-0.3-1.7-0.2-2.2c0.3-1.1,4.1-2.9,5.3-3.7c5.6-3.5,12.4-7.6,17-10.6c0.2,0,0.2,0.1,0.2,0.2c0.7,5.5,1.1,11.3,1.4,17.2
		C1851.7,207.6,1847.4,209.2,1842.6,210.7z M1832.6,196.8c1.5-1.5,3.5-2.4,5.3-3.5c5.3-3.2,11-6.9,16.5-10.2c0.5,1,0.4,2.6,0.4,4.1
		c-7.3,4.5-14.6,9-22.1,13.3C1832.3,199.7,1832.3,197.6,1832.6,196.8z M1879.6,171.1c-0.4,1.4-4.5,3.2-5.9,4.1
		c-5.9,3.8-12.7,8.2-18.2,11.4c0-1.4-0.3-2.4-0.2-3.9c7.8-5.1,15.8-10.1,23.7-15.1c0.1,0,0.3,0,0.4,0
		C1879.1,168.6,1880,169.8,1879.6,171.1z M1856.1,192.7c-0.1-1.2-0.6-3.1-0.4-3.9c0.3-1.2,4.1-3.2,5.5-4.1c5.8-3.7,13.1-7.9,18-11.4
		c0.1,0,0.1,0,0.2,0c0.1,0,0.3,0,0.4,0c0.7,6.3,1.5,12.6,2.2,19c-8.3,4.3-16.4,8.6-24.9,12.7
		C1856.6,201.1,1856.5,197.2,1856.1,192.7z M1882.2,196.2c-4.6,2-9.4,3.6-14.5,5.1c4.4-2.7,9.4-4.7,13.9-7.2
		C1882.5,194.1,1882.1,195.4,1882.2,196.2z M1883.2,196c0-0.9,0-1.8,0-2.7c8.6-5,17.2-10,25.9-14.9c0.1,0,0.3,0,0.4,0
		c0.4,2.7,0.6,5.7,1,8.4C1901.5,190.1,1892.5,193.2,1883.2,196z M1919.2,184.2c-2.6,0.8-5.2,1.6-8.2,2c-0.4-2.5-0.5-5.3-0.8-7.8
		c3-2,5.9-4.2,9.2-5.9C1919.6,176.6,1919.1,180.2,1919.2,184.2z M1919.2,170.7c-3,1.9-5.8,3.8-9,5.5c-0.9-6.5-1.2-13.5-2-20.2
		c0.3-0.6,0.7-1.1,0.8-2c3.3-2.2,6.7-4.1,10-6.3c0.2,0,0.2,0.1,0.2,0.2C1919.8,155.3,1919.2,163.2,1919.2,170.7z M1908.1,149
		c1.5-1.4,3.3-2.5,5.1-3.7c1.9-1.3,3.8-2.6,5.7-3.9c0.3-0.1,0.3,0.2,0.6,0.2c0,1.4,0,2.7,0,4.1c-3.9,2.1-7.1,4.8-11.2,6.7
		C1908.2,151.2,1907.9,150.3,1908.1,149z M1909.2,176.4c-1.8,1.8-4.3,2.7-6.5,3.9c-5.4,3.1-10.8,6.3-16.5,9.6
		c-1.1,0.6-2,1.7-3.3,1.8c-0.8-6.3-1.5-12.6-2.3-18.8c8.7-6,17.8-11.5,26.6-17.2c0.2,0,0.2,0.2,0.4,0.2
		C1908,162.8,1908.9,169.3,1909.2,176.4z M1907.7,152.9c-0.7,1.2-2.2,1.6-3.3,2.4c-6.6,4.3-13.7,9.1-20.6,13.5
		c-1,0.7-2.1,1.6-3.3,1.8c0-1.4-0.3-2.4-0.2-3.9c8.8-5.8,17.6-11.7,26.4-17.4C1907.7,149.7,1907.2,151.8,1907.7,152.9z M1877.3,139
		c0.3-1.3,4.6-3.8,6.3-5.1c6.4-4.9,13.6-10.9,19.4-15.1c0.2,0,0.2,0.2,0.4,0.2c0.9,8,2,15.8,3.1,24.3c0.2,1.3,0.5,2.8,0.4,3.3
		c-0.3,1-5.4,4-6.5,4.7c-2.5,1.7-4.7,2.9-6.9,4.3c-4.8,3.1-8.7,6.4-13.5,8.8c-0.9-6.1-1.3-12.5-2-19.2
		C1877.9,143.6,1876.9,140.4,1877.3,139z M1852.6,156.8c0.3-1.2,4-3.4,5.5-4.5c2.2-1.6,4-3.1,5.7-4.3c4.7-3.4,8.3-5.8,12.1-8.8
		c0.1,0,0.3,0,0.4,0c1.2,8.5,1.9,17.4,2.9,26.1c-4,2.6-7.9,5.3-11.9,7.8c-4,2.6-7.9,5.3-12.1,7.6c-1-6.7-1.4-13.7-2.2-21.2
		C1852.9,158.5,1852.5,157.3,1852.6,156.8z M1830.5,173.1c0.3-1.2,3.6-3,5.1-4.1c5.4-3.9,11.2-8.2,16.1-11.8c0.2,0,0.2,0.1,0.2,0.2
		c0.7,4.2,1.4,12.2,2,17.8c0.2,1.6,0.9,4.6,0.6,5.7c-0.4,1.3-4,3-5.5,3.9c-5,3.1-9.1,5.9-14.1,9c-0.9,0.5-1.7,1.4-2.7,1.4
		c-0.5-5.4-0.7-10.9-1.2-16.6C1830.8,176.9,1830.2,174.3,1830.5,173.1z M1810.1,187.6c0.3-1.1,3.1-2.5,4.5-3.5
		c3.4-2.5,6-4.6,9.2-6.9c1.8-1.3,3.7-2.3,5.1-3.7c0.1,0,0.1,0,0.2,0c0.1,0,0.3,0,0.4,0c0.8,7.1,1.6,15.3,2,22.1
		c-1.3,1.5-3.2,2.1-4.9,3.1c-4.8,2.9-9.7,6.2-14.9,8.8c-0.4-4.9-0.8-9.9-1.2-15.1C1810.4,191.1,1809.8,188.6,1810.1,187.6z
		 M1791.9,200.3c0.3-1,2.4-2.2,3.9-3.3c4.2-3.1,9.4-6.7,13.1-9.4c0.2,0,0.2,0.1,0.2,0.2c0.6,5.7,1.3,11.6,1.8,17.6
		c0.1,0.8,0.3,2.3,0.2,2.5c-0.3,0.9-2.9,2.4-4.1,3.1c-3.4,2.1-5.8,3.7-9,5.5c-1.6,0.9-3.1,1.8-4.9,2.4c-0.4-4.6-0.6-9.2-1-13.9
		C1792,203.5,1791.5,201.6,1791.9,200.3z M1790.9,200.3c0.2,0,0.2,0.2,0.4,0.2c0.6,6.2,1,12.7,1.4,19.2c-5.4,3.2-10.5,6.6-16.3,9.4
		c-0.5-5.9-0.7-12-1.2-17.8C1780.3,207.4,1785.7,203.9,1790.9,200.3z M1760.6,221.5c0.4-1.3,5.4-4,6.7-4.9c2.9-2,5-3.3,7.2-4.9
		c0.1,0,0.1,0,0.2,0c0.1,0,0.3,0,0.4,0c0.2,4.4,0.5,8.6,0.8,13.3c0.1,1.3,0.5,3.4,0.2,4.3c-0.3,1-2.3,1.8-3.5,2.5
		c-1.5,0.9-2.7,1.6-3.7,2.2c-2.7,1.6-4.9,3.2-7.6,4.1c-0.1-4.1-0.4-8.1-0.6-12.3C1760.5,224.5,1760.2,222.4,1760.6,221.5z
		 M1734.3,238.9c0.4-1.3,4.5-3.5,5.7-4.3c2.3-1.6,4.3-3,6.3-3.7c0.2,2.1,1,11.1,1,13.5c0,0,0,0,0,0c1-2.4-1-11.3-0.6-13.7
		c0.1-0.7,1.8-1.6,2.9-2.4c3-2.1,7.6-5.2,10-6.9c0.2,0,0.2,0.2,0.4,0.2c0.3,5.7,0.7,11.3,0.8,17.2c-4.5,1.8-8.9,3.7-13.5,5.4
		c0,0,0,0,0,0c0,0,0,0,0,0c-4.1,1.6-8.2,3-12.5,4.4c-0.4-2-0.2-4.2-0.3-6.2C1734.3,241.2,1734,239.9,1734.3,238.9z M1712.4,252
		c1.8-0.9,3.3-2.1,4.9-3.1c1.6-1,3.2-2.1,5.1-2.7c0.3,1,0.2,2.3,0.2,3.5c0,0,0-0.1,0-0.1c0,0,0,0,0,0c0.5-1.2-0.2-2.5,0.2-3.4
		c0.5-1.4,3.2-2.6,4.9-3.7c2.3-1.5,4.3-2.6,5.7-3.7c0.2,0,0.3,0,0.4,0.2c0.3,3.2,0.5,6.6,0.6,10c-3.4,1.5-7.7,3.2-11.2,3.9
		c-0.4-0.6-0.5-2.3-0.6-3.2c0,0,0,0.1,0,0.1c0,0,0,0,0,0c-0.4,0.7,0.3,2.6,0.2,3.6c-3.2,1.2-7,2.9-10.2,3.5
		C1712.5,255.2,1712.3,253.7,1712.4,252z M1706.1,256.1c2-1,3.5-2.5,5.7-3.3c0.5,1,0,3,0.4,4.1c-1.9,0.8-3.8,1.7-6.1,2.2
		C1706.1,258.1,1706.1,257.1,1706.1,256.1z M1699.8,260c1.8-1.1,3.4-2.5,5.5-3.3c-0.1,1,0.1,1.7,0.2,2.5c-1.7,1-3.7,1.6-5.7,2.4
		C1699.4,261.2,1700,260.8,1699.8,260z M1699.1,260.6c-0.4,2.5-3.5,2.3-5.5,3.1C1695.3,262.6,1696.9,261.3,1699.1,260.6z
		 M1574.3,294.1c0.2,0,0.2,0.1,0.2,0.2c5.8,2.4,12.1,4.1,18.4,6.3c0.7,0.2,2,0.2,2,1.4c-7.7-0.8-14.9-2.1-20.8-4.7
		C1574.2,296.2,1573.9,294.8,1574.3,294.1z M1574.1,298.8c4.3,1.1,8.6,2.1,13.1,2.9c-4.3,0.5-9-0.3-12.9-0.8
		C1574.1,300.4,1573.7,299.4,1574.1,298.8z M1573.9,301.8c5,0.5,11.1,1.5,17.6,1.2c-2.6,1.4-6.9,3.2-10.4,4.7
		c-1.2,0.5-2.7,1.3-3.5,1c-1.2-0.4-3-5.2-3.7-6.5C1573.9,302,1573.9,301.9,1573.9,301.8z M1216.7,306.8l0,2.9l-0.1,0l0-2.8
		L1216.7,306.8z"/>
</g>
</svg>
