<?xml version="1.0" encoding="utf-8"?>
<!-- Generator: Adobe Illustrator 18.1.1, SVG Export Plug-In . SVG Version: 6.00 Build 0)  -->
<svg version="1.1" id="Layer_1" xmlns="http://www.w3.org/2000/svg" xmlns:xlink="http://www.w3.org/1999/xlink" x="0px" y="0px"
	 viewBox="0 0 84.4 75.3" enable-background="new 0 0 84.4 75.3" xml:space="preserve">
<g>
	<path fill="#124860" d="M32,74.3c-0.7,0-1.4-0.3-1.9-0.8c-0.7-0.7-1-1.7-0.7-2.7l5.4-19.2c0-0.1,0-0.2,0-0.3l0-6.1
		c-6.4-0.2-12.4-0.6-17.4-1.2c-0.3,0-0.6-0.1-0.9-0.1L8.2,54c0,0.1-0.1,0.1-0.2,0.2c-0.6,0.6-1.5,1-2.3,1l-2,0
		c-0.7,0-1.4-0.3-1.9-0.8c-0.7-0.7-1-1.9-0.6-2.8l3.5-9.9c0,0,0-0.1,0-0.1l0-0.5c-0.5-0.3-0.9-0.6-1.2-0.9c-0.7-0.7-1-1.5-1.1-2.4
		c0,0,0-0.1,0-0.1c0-0.9,0.4-1.7,1.1-2.4c0.3-0.3,0.8-0.6,1.3-0.9l0-0.5c0,0,0-0.1,0-0.2l-3.5-9.9c-0.4-1-0.1-2.1,0.6-2.8
		c0.5-0.5,1.2-0.8,1.9-0.8l1.9,0c0.9,0,1.7,0.4,2.4,1c0.1,0.1,0.2,0.2,0.2,0.3l8.3,10c0.3,0,0.6-0.1,0.9-0.1c5-0.6,11-1,17.4-1.2
		l0-6.1c0-0.1,0-0.2,0-0.3L29.4,4.5c-0.3-1,0-2,0.7-2.7C30.6,1.3,31.3,1,32,1l4.1,0c0.8,0,1.6,0.3,2.2,0.9c0.2,0.2,0.4,0.5,0.5,0.7
		l3.8,7.1l2.3,0c0.8,0,1.5,0.3,2,0.8c0.5,0.5,0.8,1.3,0.8,2v2.1c0,0.7-0.3,1.4-0.7,1.9l1.8,0c0.8,0,1.5,0.3,2,0.8
		c0.5,0.5,0.8,1.3,0.8,2l0,2.1c0,0.8-0.3,1.5-0.8,2c-0.2,0.2-0.3,0.3-0.5,0.4l3.2,5.9c0.9,0,1.8,0,2.7-0.1c2.8-0.1,5.1-0.1,7.3-0.1
		c3,0,5.2,0.1,7.2,0.4c4.9,0.7,9,2.4,11.2,4.5c0.8,0.8,1.3,1.6,1.4,2.4c0,0,0.1,0.3,0.1,0.7c0,0.2,0,0.5-0.1,0.8
		c-0.2,0.8-0.6,1.6-1.4,2.3c-2.1,2.1-6.3,3.8-11.2,4.5c-2,0.3-4.2,0.4-7.2,0.4c0,0,0,0,0,0c-2.1,0-4.5-0.1-7.2-0.1
		c-0.8,0-1.7,0-2.5-0.1l-0.2,0l-3.2,5.9c0.2,0.1,0.4,0.3,0.6,0.4c0.5,0.5,0.8,1.3,0.8,2v2.1c0,0.8-0.3,1.5-0.8,2
		c-0.5,0.5-1.3,0.8-2,0.8h-1.8c0.5,0.5,0.7,1.2,0.7,1.9l0,2.1c0,0.8-0.3,1.5-0.8,2c-0.5,0.5-1.3,0.8-2,0.8l-2.3,0l-3.8,7.1
		c-0.1,0.3-0.3,0.5-0.5,0.7c-0.6,0.6-1.4,0.9-2.2,1c0,0,0,0,0,0L32,74.3z"/>
	<path fill="#FFFFFF" d="M36.1,2c0.6,0,1.1,0.2,1.5,0.6C37.8,2.8,37.9,3,38,3.1l4.1,7.6l2.9,0c0,0,0,0,0,0c0.5,0,0.9,0.2,1.3,0.5
		c0.3,0.3,0.5,0.8,0.5,1.3v2.1c0,0.5-0.2,1-0.5,1.3c-0.3,0.3-0.7,0.5-1.1,0.5l0.6,1.1l3.1,0c0,0,0,0,0,0c0.5,0,0.9,0.2,1.3,0.5
		c0.3,0.3,0.5,0.8,0.5,1.3l0,2.1c0,0.5-0.2,1-0.5,1.3c-0.3,0.3-0.8,0.5-1.3,0.5l0,0l4.1,7.5c1.2,0,2.2-0.1,3.3-0.1
		c2.7-0.1,5.1-0.1,7.3-0.1c2.7,0,5,0.1,7.1,0.4c4.7,0.7,8.6,2.3,10.6,4.2c0.6,0.6,1,1.3,1.1,1.9c0,0,0.1,0.2,0.1,0.5
		c0,0.2,0,0.4-0.1,0.5c-0.1,0.6-0.5,1.2-1.1,1.9c-2,2-5.9,3.6-10.6,4.2c-2.1,0.3-4.4,0.4-7.1,0.4c-2.1,0-4.5-0.1-7.2-0.1
		c-1.1,0-2.2-0.1-3.3-0.1L48.9,52l0,0c0,0,0,0,0,0c0.5,0,0.9,0.2,1.3,0.5c0.3,0.3,0.5,0.8,0.5,1.3v2.1c0,0.5-0.2,0.9-0.5,1.3
		c-0.3,0.3-0.8,0.5-1.3,0.5h-3.1l-0.6,1.1c0.4,0,0.8,0.2,1.1,0.5c0.3,0.3,0.5,0.8,0.5,1.3l0,2.1c0,0.5-0.2,0.9-0.5,1.3
		c-0.3,0.3-0.8,0.5-1.3,0.5c0,0,0,0,0,0l-2.9,0L38,72.2c-0.1,0.2-0.2,0.3-0.3,0.5c-0.4,0.4-1,0.6-1.5,0.7l-4.2,0c0,0,0,0,0,0
		c-0.5,0-0.9-0.2-1.2-0.5c-0.4-0.4-0.6-1.1-0.4-1.7l5.5-19.2c0-0.1,0.1-0.4,0.1-0.5l0-7.1c-6.8-0.2-13.1-0.6-18.3-1.2
		c-0.5-0.1-1-0.1-1.4-0.2L7.4,53.3c0,0-0.1,0.1-0.1,0.1c-0.5,0.4-1.1,0.7-1.7,0.7l-2,0c0,0,0,0,0,0c-0.5,0-0.9-0.2-1.2-0.5l0,0
		c-0.5-0.5-0.6-1.2-0.4-1.8L5.6,42c0-0.1,0.1-0.3,0.1-0.4l0-1.1c-0.7-0.3-1.2-0.7-1.6-1c-0.5-0.5-0.8-1.1-0.8-1.7l0,0l0,0
		c0-0.6,0.3-1.2,0.8-1.7c0.4-0.4,0.9-0.7,1.6-1l0-1.1c0-0.1,0-0.4-0.1-0.4l-3.5-9.9c-0.2-0.6-0.1-1.3,0.4-1.8
		c0.3-0.3,0.7-0.5,1.2-0.5c0,0,0,0,0,0l1.9,0c0.6,0,1.2,0.3,1.7,0.7C7.4,21.9,7.4,22,7.5,22l8.7,10.4c0.5-0.1,0.9-0.1,1.4-0.2
		c5.2-0.6,11.5-1.1,18.3-1.2l0-7.1c0-0.1,0-0.4-0.1-0.5L30.4,4.2c-0.2-0.6,0-1.3,0.4-1.7C31.1,2.2,31.5,2,32,2L36.1,2 M36.1,0L32,0
		c-1,0-1.9,0.4-2.6,1.1c-1,1-1.3,2.4-0.9,3.7L33.9,24c0,0,0,0.1,0,0.1l0,5.1c-6.1,0.2-11.8,0.6-16.5,1.2c-0.1,0-0.2,0-0.3,0l-8-9.6
		c-0.1-0.1-0.2-0.2-0.3-0.3c-0.9-0.8-1.9-1.3-3.1-1.3l-2,0c-1,0-2,0.4-2.6,1.1c-1,1-1.4,2.5-0.8,3.9l3.4,9.6C3.3,34,3,34.2,2.8,34.5
		c-0.9,0.9-1.4,2-1.4,3.1c0,0,0,0.1,0,0.1c0,0,0,0,0,0c0,1.1,0.5,2.2,1.4,3c0.3,0.3,0.6,0.5,0.9,0.7l-3.4,9.7
		c-0.5,1.3-0.2,2.9,0.8,3.9c0.7,0.7,1.6,1.1,2.6,1.1l2,0c1.2,0,2.2-0.5,3-1.3c0.1-0.1,0.2-0.2,0.2-0.2L17,45c0.1,0,0.2,0,0.3,0
		c4.8,0.6,10.4,1,16.5,1.2l0,5.1c0,0,0,0,0,0.1l-5.4,19.2c-0.4,1.3,0,2.7,0.9,3.7c0.7,0.7,1.6,1.1,2.6,1.1l4.2,0
		c1.1,0,2.1-0.5,2.9-1.2c0.3-0.3,0.5-0.6,0.7-0.9l3.6-6.6l1.7,0c1,0,2-0.4,2.7-1.1c0.7-0.7,1.1-1.7,1.1-2.7l0-2.1
		c0-0.3,0-0.6-0.1-0.9H49c1,0,2-0.4,2.7-1.1c0.7-0.7,1.1-1.7,1.1-2.7v-2.1c0-1-0.4-2-1.1-2.7l2.5-4.6c0.7,0,1.4,0,2.1,0.1
		c2.8,0.1,5.1,0.1,7.3,0.1c3.1,0,5.3-0.1,7.3-0.4c5.1-0.7,9.4-2.5,11.7-4.8c0.9-0.9,1.5-1.9,1.7-2.8c0.1-0.3,0.1-0.7,0.1-1
		c0-0.4-0.1-0.7-0.1-0.9c-0.2-1-0.8-2-1.7-2.9c-2.3-2.3-6.6-4-11.7-4.8c-2-0.3-4.3-0.4-7.4-0.4c-2.2,0-4.6,0.1-7.3,0.1
		c-0.7,0-1.3,0-2.1,0.1l-2.5-4.6c0,0,0,0,0,0c0.7-0.7,1.1-1.7,1.1-2.7l0-2.1c0-1-0.4-2-1.1-2.7C50.9,16,50,15.6,49,15.6l-0.2,0
		c0.1-0.3,0.1-0.6,0.1-0.9v-2.1c0-1-0.4-2-1.1-2.7C47,9.2,46.1,8.8,45,8.8l-1.7,0l-3.6-6.6c-0.2-0.3-0.4-0.7-0.7-0.9
		C38.3,0.4,37.2,0,36.1,0C36.2,0,36.1,0,36.1,0L36.1,0z"/>
</g>
</svg>
